<?xml version="1.0" encoding="utf-8"?>
<!-- Generator: Adobe Illustrator 24.2.3, SVG Export Plug-In . SVG Version: 6.00 Build 0)  -->
<svg version="1.1" id="Layer_1" xmlns="http://www.w3.org/2000/svg" xmlns:xlink="http://www.w3.org/1999/xlink" x="0px" y="0px"
	 viewBox="0 0 274.6 279.7" style="enable-background:new 0 0 274.6 279.7;" xml:space="preserve">
<style type="text/css">
	.st0{fill:url(#SVGID_1_);}
	.st1{fill:url(#SVGID_2_);}
	.st2{fill:url(#SVGID_3_);}
	.st3{fill:url(#SVGID_4_);}
	.st4{fill:url(#SVGID_5_);}
	.st5{fill:url(#SVGID_6_);}
	.st6{fill:url(#SVGID_7_);}
	.st7{fill:url(#SVGID_8_);}
	.st8{fill:url(#SVGID_9_);}
	.st9{fill:url(#SVGID_10_);}
	.st10{fill:url(#SVGID_11_);}
	.st11{fill:url(#SVGID_12_);}
	.st12{fill:url(#SVGID_13_);}
	.st13{fill:url(#SVGID_14_);}
	.st14{fill:url(#SVGID_15_);}
	.st15{fill:#FFFFFF;}
	.st16{fill:url(#SVGID_16_);}
	.st17{fill:url(#SVGID_17_);}
	.st18{fill:url(#SVGID_18_);}
	.st19{fill:url(#SVGID_19_);}
	.st20{fill:url(#SVGID_20_);}
	.st21{fill:url(#SVGID_21_);}
	.st22{fill:url(#SVGID_22_);}
	.st23{fill:url(#SVGID_23_);}
	.st24{fill:url(#SVGID_24_);}
	.st25{fill:url(#SVGID_25_);}
	.st26{fill:url(#SVGID_26_);}
	.st27{fill:url(#SVGID_27_);}
	.st28{fill:url(#SVGID_28_);}
	.st29{fill:url(#SVGID_29_);}
	.st30{fill:url(#SVGID_30_);}
	.st31{fill:url(#SVGID_31_);}
	.st32{fill:url(#SVGID_32_);}
	.st33{fill:url(#SVGID_33_);}
	.st34{fill:url(#SVGID_34_);}
	.st35{fill:url(#SVGID_35_);}
	.st36{fill:url(#SVGID_36_);}
	.st37{fill:url(#SVGID_37_);}
	.st38{fill:url(#SVGID_38_);}
	.st39{fill:url(#SVGID_39_);}
	.st40{fill:url(#SVGID_40_);}
	.st41{fill:url(#SVGID_41_);}
	.st42{fill:url(#SVGID_42_);}
	.st43{fill:url(#SVGID_43_);}
	.st44{fill:url(#SVGID_44_);}
</style>
<g>
	<g>
		<path class="st15" d="M39.3,183.5c0.9-0.2,1.7-0.3,2.4-0.3c0.7,0,1.4-0.1,1.9-0.1c0.7,0,1.5,0,2.2,0.1c0.7,0,1.4,0.1,2,0.3
			l6.1,20.9l6-20.9c0.6-0.1,1.3-0.2,2-0.2s1.4-0.1,2.1-0.1c0.5,0,1.2,0,1.9,0.1c0.7,0,1.5,0.1,2.4,0.3l-10.7,28.1
			c-0.7,0.1-1.4,0.2-2.2,0.2c-0.8,0-1.4,0.1-1.9,0.1c-0.5,0-1.2,0-1.8-0.1c-0.7,0-1.3-0.1-2-0.3L39.3,183.5z"/>
		<path class="st15" d="M73.9,189.3h-3.6c-0.1-0.5-0.2-1-0.2-1.5c-0.1-0.5-0.1-1-0.1-1.5c0-1,0.1-1.9,0.3-2.9h11.2v28.1
			c-1.3,0.2-2.6,0.3-3.8,0.3c-1.2,0-2.5-0.1-3.8-0.3V189.3z M72.8,178.7c-0.2-1.2-0.3-2.5-0.3-3.6c0-1.2,0.1-2.4,0.3-3.6
			c0.6-0.1,1.3-0.2,2-0.2c0.7-0.1,1.3-0.1,1.9-0.1c0.6,0,1.3,0,2,0.1c0.7,0.1,1.4,0.1,2,0.2c0.1,0.6,0.2,1.2,0.2,1.8
			c0,0.6,0.1,1.2,0.1,1.8c0,0.6,0,1.2-0.1,1.8c0,0.6-0.1,1.2-0.2,1.8c-0.6,0.1-1.3,0.2-2,0.2c-0.7,0-1.4,0.1-2,0.1
			c-0.6,0-1.2,0-2-0.1C74.1,178.9,73.4,178.8,72.8,178.7z"/>
		<path class="st15" d="M95.3,199.9c0.1,2.2,0.9,3.8,2.3,4.7c1.4,1,3.2,1.5,5.4,1.5c1.2,0,2.5-0.1,3.8-0.4c1.3-0.2,2.5-0.6,3.7-1
			c0.4,0.7,0.7,1.6,1,2.6c0.3,1,0.5,2.1,0.5,3.3c-2.8,1.1-6,1.6-9.6,1.6c-2.6,0-4.8-0.4-6.7-1.1c-1.9-0.7-3.4-1.7-4.6-3
			c-1.2-1.3-2-2.8-2.6-4.6c-0.6-1.8-0.8-3.7-0.8-5.8c0-2.1,0.3-4,0.9-5.8c0.6-1.8,1.4-3.4,2.6-4.7c1.1-1.3,2.6-2.4,4.2-3.2
			c1.7-0.8,3.7-1.2,5.9-1.2c2,0,3.7,0.3,5.2,1c1.5,0.7,2.8,1.6,3.9,2.8c1.1,1.2,1.9,2.6,2.4,4.3c0.5,1.7,0.8,3.4,0.8,5.3
			c0,0.7,0,1.4-0.1,2c-0.1,0.7-0.1,1.2-0.2,1.6H95.3z M106.3,194.5c-0.1-1.7-0.6-3.1-1.4-4.2c-0.9-1.1-2.1-1.6-3.7-1.6
			c-1.8,0-3.2,0.5-4.1,1.5c-0.9,1-1.5,2.4-1.7,4.3H106.3z"/>
		<path class="st15" d="M115.4,183.5c0.8-0.2,1.6-0.3,2.4-0.3c0.7,0,1.4-0.1,1.9-0.1c0.7,0,1.4,0,2.1,0.1c0.7,0,1.3,0.1,2,0.3
			l4.5,20.8l5.2-20.8c1.1-0.2,2.4-0.3,3.7-0.3c0.9,0,1.7,0.1,2.3,0.1c0.6,0,1.2,0.1,1.6,0.2l5.1,20.4l4.5-20.4
			c0.6-0.1,1.2-0.2,1.7-0.2s1.2-0.1,1.9-0.1c0.5,0,1.1,0,1.8,0.1c0.7,0,1.5,0.1,2.4,0.3l-8.8,28.1c-0.7,0.1-1.3,0.2-2.1,0.2
			c-0.7,0-1.4,0.1-1.9,0.1c-0.5,0-1.1,0-1.8-0.1c-0.7,0-1.3-0.1-1.9-0.3l-5.1-18.6l-5.3,18.7c-0.7,0.1-1.4,0.2-2.2,0.2
			c-0.7,0-1.4,0.1-1.9,0.1c-0.5,0-1.1,0-1.8-0.1c-0.7,0-1.3-0.1-1.9-0.3L115.4,183.5z"/>
		<linearGradient id="SVGID_1_" gradientUnits="userSpaceOnUse" x1="166.7776" y1="181.3452" x2="166.7776" y2="224.4477">
			<stop  offset="0.1774" style="stop-color:#FFFFFF"/>
			<stop  offset="0.8441" style="stop-color:#FFFFFF"/>
		</linearGradient>
		<path class="st0" d="M162.8,211.6c-0.2-1.3-0.3-2.7-0.3-4c0-1.3,0.1-2.6,0.3-4c1.3-0.2,2.7-0.3,4-0.3c1.3,0,2.6,0.1,4,0.3
			c0.2,1.4,0.3,2.7,0.3,4c0,1.3-0.1,2.7-0.3,4c-1.4,0.2-2.7,0.3-4,0.3C165.5,211.9,164.1,211.8,162.8,211.6z"/>
		<linearGradient id="SVGID_2_" gradientUnits="userSpaceOnUse" x1="191.4222" y1="181.3452" x2="191.4222" y2="224.4477">
			<stop  offset="0.1774" style="stop-color:#FFFFFF"/>
			<stop  offset="0.8441" style="stop-color:#FFFFFF"/>
		</linearGradient>
		<path class="st1" d="M178.3,183.4c0.5-0.1,1-0.2,1.5-0.2c0.5,0,1-0.1,1.7-0.1c1,0,2,0.1,3.1,0.3c0.1,0.2,0.2,0.4,0.3,0.8
			c0.1,0.3,0.2,0.7,0.3,1.1c0.1,0.4,0.2,0.8,0.2,1.2c0.1,0.4,0.1,0.7,0.1,0.9c0.3-0.6,0.7-1.1,1.2-1.7c0.5-0.6,1-1.1,1.7-1.5
			c0.7-0.4,1.4-0.8,2.3-1.1c0.8-0.3,1.8-0.4,2.8-0.4c1.6,0,3,0.3,4.4,0.9c1.4,0.6,2.5,1.5,3.6,2.6c1,1.2,1.8,2.7,2.4,4.4
			c0.6,1.8,0.8,3.9,0.8,6.3c0,2.4-0.3,4.5-1,6.3c-0.7,1.9-1.7,3.5-3,4.8c-1.3,1.3-2.9,2.3-4.8,3c-1.9,0.7-4,1.1-6.4,1.1
			c-0.6,0-1.2,0-1.8-0.1c-0.6-0.1-1.1-0.1-1.5-0.2v12.5c-0.7,0.1-1.3,0.2-2,0.2c-0.6,0-1.3,0.1-1.9,0.1c-0.6,0-1.2,0-1.9-0.1
			c-0.6,0-1.3-0.1-2-0.2V183.4z M186,205.6c1,0.3,2.1,0.4,3.4,0.4c2.3,0,4-0.7,5.2-2.2c1.2-1.5,1.8-3.6,1.8-6.6
			c0-1.1-0.1-2.2-0.3-3.1c-0.2-1-0.5-1.8-0.9-2.5c-0.4-0.7-1-1.2-1.7-1.6c-0.7-0.4-1.5-0.6-2.5-0.6c-0.9,0-1.7,0.2-2.3,0.5
			c-0.6,0.3-1.2,0.8-1.6,1.4c-0.4,0.6-0.7,1.3-0.9,2.1c-0.2,0.8-0.3,1.7-0.3,2.6V205.6z"/>
		<linearGradient id="SVGID_3_" gradientUnits="userSpaceOnUse" x1="221.0475" y1="181.3452" x2="221.0475" y2="224.4477">
			<stop  offset="0.1774" style="stop-color:#FFFFFF"/>
			<stop  offset="0.8441" style="stop-color:#FFFFFF"/>
		</linearGradient>
		<path class="st2" d="M206.8,183.5c0.8-0.2,1.6-0.3,2.2-0.3c0.6,0,1.2,0,1.8,0c0.7,0,1.5,0,2.2,0.1c0.8,0,1.4,0.1,2.1,0.3l5.9,24.5
			l6.6-24.5c1.2-0.2,2.4-0.3,3.7-0.3c0.5,0,1.1,0,1.7,0c0.6,0,1.4,0.1,2.3,0.3l-10.5,34.8c-0.4,1.4-0.9,2.5-1.5,3.4
			c-0.6,0.9-1.3,1.6-2,2.1c-0.8,0.5-1.6,0.9-2.6,1.1c-0.9,0.2-2,0.3-3,0.3c-1,0-1.9-0.1-2.7-0.2c-0.8-0.1-1.6-0.3-2.4-0.5
			c0-0.2-0.1-0.3-0.1-0.5c0-0.1,0-0.3,0-0.4c0-0.9,0.1-1.7,0.3-2.5c0.2-0.8,0.4-1.5,0.7-2.3c0.3,0.1,0.8,0.2,1.3,0.3
			c0.5,0.1,1.1,0.1,1.6,0.1c0.4,0,0.9,0,1.3-0.1c0.4-0.1,0.9-0.2,1.3-0.5c0.4-0.3,0.8-0.7,1.2-1.3c0.4-0.6,0.7-1.4,1-2.5l0.9-3.4
			c-0.4,0-0.8,0.1-1.3,0.1c-0.5,0-1,0-1.5,0c-0.4,0-0.8,0-1.1,0c-0.4,0-0.7,0-1-0.1L206.8,183.5z"/>
	</g>
	<g>
		<g>
			<linearGradient id="SVGID_4_" gradientUnits="userSpaceOnUse" x1="136.7529" y1="59.2047" x2="136.7529" y2="165.1516">
				<stop  offset="0" style="stop-color:#FFFFFF"/>
				<stop  offset="0.1774" style="stop-color:#FFFFFF"/>
				<stop  offset="0.8441" style="stop-color:#FFFFFF"/>
				<stop  offset="1" style="stop-color:#FFFFFF"/>
			</linearGradient>
			<path class="st3" d="M167,93.2c0-1.5-0.4-2.9-1.2-4.2c-1.5-2.4-4-3.8-6.8-3.8h-44.5c-2.8,0-5.4,1.4-6.8,3.8
				c-0.8,1.3-1.2,2.7-1.2,4.2c0,1.2,0.3,2.5,0.9,3.6l22.3,44c1.4,2.7,4.1,4.4,7.1,4.4c3,0,5.8-1.7,7.1-4.4l22.3-44
				C166.7,95.7,167,94.4,167,93.2z M154.1,114l-1.2,2.4c-0.8,1.3-1.7,2.6-2.8,3.7c-3.4,3.4-8.1,5.5-13.3,5.5
				c-5.2,0-9.9-2.1-13.3-5.5c-1.1-1.1-2-2.3-2.8-3.7l-1.2-2.4c-0.9-2.2-1.4-4.6-1.4-7.1c0-5.2,2.1-9.9,5.5-13.3
				c3.2-3.2,7.6-5.2,12.4-5.5h1.6c4.9,0.2,9.2,2.2,12.4,5.5c3.4,3.4,5.5,8.1,5.5,13.3C155.5,109.4,155,111.8,154.1,114z M109.5,93.2
				c0-0.9,0.2-1.8,0.8-2.6c1-1.5,2.4-2.4,4.3-2.4h11.4c-6.1,3.5-10.3,10-10.7,17.4L110,95.5C109.6,94.7,109.5,94,109.5,93.2z
				 M141.2,139.5c-0.9,1.7-2.5,2.7-4.5,2.7c-2,0-3.6-1-4.5-2.7l-7.3-14.4c3.4,2.2,7.4,3.5,11.7,3.5c4.3,0,8.4-1.3,11.7-3.5
				L141.2,139.5z M163.5,95.5l-5.1,10.2c-0.4-7.5-4.6-13.9-10.7-17.4H159c1.8,0,3.3,0.8,4.3,2.4c0.5,0.8,0.8,1.7,0.8,2.6
				C164,94,163.9,94.7,163.5,95.5z"/>
			<linearGradient id="SVGID_5_" gradientUnits="userSpaceOnUse" x1="136.7539" y1="59.2047" x2="136.7539" y2="165.1516">
				<stop  offset="0" style="stop-color:#FFFFFF"/>
				<stop  offset="0.1774" style="stop-color:#FFFFFF"/>
				<stop  offset="0.8441" style="stop-color:#FFFFFF"/>
				<stop  offset="1" style="stop-color:#FFFFFF"/>
			</linearGradient>
			<path class="st4" d="M141.7,97.2c0-1.4,0.6-2.7,1.6-3.6c-2-1-4.2-1.5-6.6-1.5c-8.2,0-14.8,6.6-14.8,14.8
				c0,8.2,6.6,14.8,14.8,14.8c8.2,0,14.8-6.6,14.8-14.8c0-2.4-0.6-4.6-1.5-6.6c-0.9,1-2.2,1.6-3.6,1.6
				C143.8,102,141.7,99.8,141.7,97.2z"/>
		</g>
		<linearGradient id="SVGID_6_" gradientUnits="userSpaceOnUse" x1="142.6647" y1="60.2756" x2="142.6647" y2="161.9665">
			<stop  offset="0" style="stop-color:#FFFFFF"/>
			<stop  offset="0.1774" style="stop-color:#FFFFFF"/>
			<stop  offset="0.8441" style="stop-color:#FFFFFF"/>
			<stop  offset="1" style="stop-color:#FFFFFF"/>
		</linearGradient>
		<path class="st5" d="M189.6,121.7L189.6,121.7c11.4,3.4,18.8,8.7,18.8,14.8c0,10.1-20.5,18.2-45.9,18.2c-11.2,0-21.4-1.6-29.4-4.2
			l0,0c-2.8-0.9-5.2-2.8-6.7-5.7l-24.1-47.6c-1.9-3.8-1.5-8,0.5-11.2c-19.3,1.6-31.6,8.2-31.6,12.7c0,4.1,10.2,9.9,26.6,12.2l0.2,0
			c0.6,0.1,1.3,0.2,2,0.2c0.2,0,0.3,0,0.5,0.1c0.6,0.1,1.3,0.1,1.9,0.2c0.2,0,0.3,0,0.5,0c0.8,0.1,1.6,0.1,2.4,0.2
			c-6.7,0.7-12.7,0.8-17.8,0.3v8.5h0.1v10.9c0,4.3,2.3,8.3,6,10.5l37.2,21.5c1.9,1.1,4,1.6,6,1.6s4.2-0.5,6-1.6l3.4-1.9
			c-7.8-1.9-14.7-4.4-20.3-7.4c0.9,0.4,1.8,0.7,2.8,1.1l0.3,0.1c2,0.7,4,1.3,6.2,1.9l0.2,0c1.1,0.3,2.2,0.5,3.3,0.8l0.3,0.1
			c2.3,0.5,4.7,0.9,7.2,1.2l0.4,0c1.2,0.2,2.5,0.3,3.7,0.4l0.3,0c1.3,0.1,2.6,0.2,3.9,0.3l0,0l0,0c2.7,0.2,5.4,0.3,8.2,0.3
			c28.5,0,51.5-9.3,51.5-20.7C214.1,131.8,204.3,125.3,189.6,121.7z"/>
		<linearGradient id="SVGID_7_" gradientUnits="userSpaceOnUse" x1="131.9256" y1="53.2367" x2="131.9256" y2="166.1817">
			<stop  offset="0" style="stop-color:#FFFFFF"/>
			<stop  offset="0.1774" style="stop-color:#FFFFFF"/>
			<stop  offset="0.8441" style="stop-color:#FFFFFF"/>
			<stop  offset="1" style="stop-color:#FFFFFF"/>
		</linearGradient>
		<path class="st6" d="M174.1,123.9l-0.1,0c-1.5-0.2-3-0.3-4.6-0.4c6.2-0.7,11.9-0.7,16.8-0.4V92.4h-0.1v-4.2c0-4.3-2.3-8.3-6-10.5
			l-37.2-21.5c-1.9-1.1-4-1.6-6-1.6s-4.2,0.5-6,1.6l-25.1,14.5c3.3,0.2,14.2,0.9,27.2,6.1c-6.1-1.1-12.9-1.7-20-1.7v0
			c-0.3,0-0.5,0-0.8,0c-28.5,0-51.5,9.3-51.5,20.7c0,7.3,9.4,13.7,23.5,17.4V113c-10.8-3.3-17.8-8.5-17.8-14.4
			c0-10,20.4-18.2,45.7-18.2l0,0.1c0.3,0,0.6-0.1,0.9-0.1h48.1c8.6,0,14.2,9.1,10.3,16.7L147,144.7c-0.7,1.3-1.5,2.4-2.5,3.3
			c5.3,1,11.4,1.6,18.1,1.6c24.5,0,40.8-7.9,40.8-13.1C203.4,132.1,192,125.9,174.1,123.9z"/>
	</g>
</g>
</svg>
