<?xml version="1.0" encoding="UTF-8"?> <svg xmlns="http://www.w3.org/2000/svg" xmlns:xlink="http://www.w3.org/1999/xlink" id="Livello_1" viewBox="0 0 196.3 49.88"><defs><style>.cls-1{fill:url(#Sfumatura_senza_nome_170);}.cls-2{fill:#fff;}.cls-3{fill:#263548;}.cls-4{fill:#1c1c1c;}.cls-5{fill:url(#Sfumatura_senza_nome_170-2);}.cls-6{fill:url(#Sfumatura_senza_nome_170-3);}.cls-7{isolation:isolate;opacity:.27;}.cls-8{fill:#a5abbd;opacity:.38;}</style><linearGradient id="Sfumatura_senza_nome_170" x1="78.19" y1="34.59" x2="11.46" y2="-32.14" gradientTransform="matrix(1, 0, 0, 1, 0, 0)" gradientUnits="userSpaceOnUse"><stop offset="0" stop-color="#1060fd"></stop><stop offset="1" stop-color="#40aafe"></stop></linearGradient><linearGradient id="Sfumatura_senza_nome_170-2" x1="50.16" y1="48.52" x2="23.17" y2="-.52" xlink:href="#Sfumatura_senza_nome_170"></linearGradient><linearGradient id="Sfumatura_senza_nome_170-3" x1="97.64" y1="38.38" x2="127.7" y2="38.38" xlink:href="#Sfumatura_senza_nome_170"></linearGradient></defs><g><path class="cls-3" d="M38.1,26.86v8.26c-.58-.21-1.15-.44-1.73-.68-.5-.21-1.01-.42-1.52-.63-3.24-1.41-6.23-2.99-8.94-4.67-3.38-2.12-6.3-4.4-8.63-6.73-1.47-1.47-2.71-2.95-3.69-4.41v-2.02l24.51,10.88Z"></path><path class="cls-3" d="M38.1,26.86v8.26c.28,.11,.55,.21,.82,.3,.16,.07,.32,.12,.49,.18l23.2-10.31V15.97l-24.51,10.89Zm2.82,6.31l-.3,.1c-.21,.07-.38-.07-.38-.3l-.02-4.41c0-.24,.16-.49,.38-.56l.3-.1c.21-.07,.38,.07,.38,.3l.02,4.41c0,.24-.17,.49-.38,.56Zm2.08-1.75l-.16,.05c-.11,.03-.2-.03-.2-.16v-2.26c0-.12,.07-.25,.18-.29l.16-.05c.11-.03,.2,.03,.2,.16v2.26c0,.13-.07,.26-.18,.29Zm2.35,.19l-.3,.1c-.21,.07-.38-.07-.38-.3l-.02-4.41c0-.24,.16-.49,.38-.56l.3-.1c.21-.07,.38,.07,.38,.3l.02,4.41c0,.24-.17,.49-.38,.56Zm11.19-7.43c-.17,.72-.72,1.24-1.2,1.16-.49-.08-.73-.73-.55-1.46s.72-1.24,1.2-1.16c.49,.09,.73,.74,.55,1.46Zm4.72-1.9c-.29,1.15-1.14,1.98-1.92,1.85s-1.17-1.17-.89-2.32c.29-1.15,1.14-1.98,1.92-1.85,.77,.12,1.18,1.17,.89,2.32Z"></path><path class="cls-3" d="M43.03,47.68l-4.94,2.19v-3.32c.16,.04,.3,.08,.46,.12,1.52,.39,3.01,.72,4.48,1Z"></path><path class="cls-4" d="M56.24,41.81l-3.38,1.5h0l-.99,.44h0l-4.94,2.19c-2.47-.35-5.04-.86-7.66-1.52-.22-.06-.45-.12-.68-.18-.17-.04-.35-.09-.51-.14v-3.56l2.63-1.17c1.47,.44,2.93,.81,4.36,1.12l.44,.1c.95,.21,1.89,.38,2.81,.53,2.78,.47,5.44,.7,7.91,.7Z"></path><path class="cls-3" d="M62.61,29.66v9.33l-.54,.24c-3.29,.27-7.02,.09-11.01-.57-.92-.15-1.86-.32-2.81-.53l-.44-.1c-.87-.19-1.75-.4-2.64-.63l17.43-7.74Z"></path><path class="cls-4" d="M38.1,40.54v3.56c-.52-.14-1.04-.29-1.56-.44-2.5-.74-5.04-1.63-7.58-2.67-5.17-2.11-9.85-4.63-13.87-7.35-.51-.35-1.01-.7-1.51-1.05v-2.92l8.92,3.96,15.59,6.92Z"></path><path class="cls-3" d="M38.1,46.56v3.32l-24.51-10.89v-3.62c.26,.18,.52,.36,.78,.54,4.01,2.73,8.69,5.25,13.87,7.35,2.54,1.04,5.08,1.93,7.58,2.67,.52,.16,1.04,.3,1.56,.44,.17,.05,.35,.1,.51,.14,.07,.02,.14,.03,.21,.05Z"></path><polygon class="cls-3" points="13.59 10.89 38.1 0 62.6 10.89 38.1 21.78 13.59 10.89"></polygon><g><path class="cls-1" d="M73.7,26.03l.58,1.12c.08,.16-.07,.35-.24,.3-.6-.19-1.66-.36-2.76,.26s-1.54,1.62-1.71,2.24c-.05,.18-.29,.21-.37,.04l-.58-1.12s-.03-.12,0-.17l.54-1.48c.02-.07,.02-.14-.02-.2-.35-.46-.72-1.05-1.06-1.76-.41-.86-.64-1.66-.77-2.31,0-.03,0-.07,0-.1,.08-.31,.16-.63,.26-.93,.13-.49,.63-.77,1.1-.62l.9,.3s.06,.02,.08,.05c.44,.44,.96,1.06,1.43,1.87,.42,.71,.68,1.38,.86,1.94,.02,.07,.07,.12,.15,.14,.5,.12,1,.23,1.5,.34,.04,.02,.09,.05,.12,.11Z"></path><path class="cls-5" d="M73.54,36.22c-.02,.13-.03,.25-.06,.37-.12,.72-.33,1.41-.62,2.08-.02,.06-.05,.11-.07,.16,0,.02-.02,.05-.03,.07-.25,.54-.55,1.05-.91,1.52h0c-.07,.08-.12,.16-.19,.25-.22,.28-.45,.55-.71,.82-.21,.22-.44,.43-.68,.63-3.25,2.82-8.64,4.29-15.2,4.36-.86,0-1.74,0-2.64-.04-1.17-.05-2.37-.14-3.6-.27h0c-.63-.07-1.26-.15-1.9-.23-2.47-.35-5.04-.86-7.66-1.52-.22-.06-.45-.12-.68-.18-.17-.04-.35-.09-.51-.14-.52-.14-1.04-.29-1.56-.44-2.5-.74-5.04-1.63-7.58-2.67-5.17-2.11-9.85-4.63-13.87-7.35-.51-.35-1.01-.7-1.51-1.05-1.46-1.06-2.82-2.15-4.08-3.25h0C3.55,24.09,.05,18.47,0,13.6H0c0-.12,0-.26,0-.38H.01c0-.46,.05-.9,.13-1.33,.08-.5,.21-1,.38-1.47H.52c.09-.28,.21-.55,.34-.82,.15-.31,.3-.61,.49-.9,.04-.07,.08-.14,.13-.21,.07-.1,.13-.2,.2-.29l.2-.27c.74-.97,1.69-1.83,2.81-2.57,3.27-2.15,8.05-3.28,13.7-3.35,.33,0,.67,0,1.01,0,.86,0,1.75,.03,2.64,.09,1.19,.07,2.42,.19,3.67,.34,.22,.02,.44,.06,.67,.09l-.73,.23-2.63,.84c-.38,0-.76,.02-1.13,.06-.17,0-.35,.02-.52,.04-.2,.02-.4,.03-.6,.05h0c-1.3,.13-2.52,.33-3.66,.61h0c-1.81,.44-3.39,1.06-4.7,1.88-.65,.4-1.24,.84-1.74,1.33-.15,.15-.29,.29-.42,.44-.08,.09-.16,.19-.24,.28-.02,.03-.05,.06-.07,.09-.07,.09-.14,.18-.21,.26,0,.02-.02,.02-.03,.04-.1,.13-.19,.27-.28,.4-.02,.02-.02,.04-.04,.07-.15,.25-.29,.5-.41,.77-.14,.3-.26,.59-.35,.9-.09,.28-.16,.55-.21,.84-.08,.44-.13,.89-.14,1.35v.4h0c.03,1.33,.38,2.73,1,4.16,.2,.47,.43,.93,.68,1.4,.9,1.63,2.12,3.29,3.66,4.93,.3,.34,.63,.67,.96,1,.55,.55,1.14,1.1,1.75,1.64,1.99,1.75,4.31,3.48,6.88,5.09,2.71,1.69,5.71,3.27,8.94,4.67,.5,.21,1,.43,1.52,.63,.85,.35,1.7,.68,2.55,.99,.23,.09,.46,.17,.68,.25,1.28,.45,2.57,.86,3.84,1.24,1.47,.44,2.93,.81,4.36,1.12l.44,.1c.95,.21,1.89,.38,2.81,.53,2.78,.46,5.44,.68,7.91,.69h0c3.01,0,5.74-.33,8.06-.99,.06-.02,.12-.03,.18-.05,.27-.08,.54-.16,.82-.26,1.64-.57,3.05-1.32,4.16-2.26,.2-.16,.4-.34,.58-.52,.26-.26,.5-.53,.72-.8h0c.06-.07,.12-.15,.17-.23,.28-.39,.53-.8,.72-1.23,.02-.05,.04-.09,.06-.14h0c.02-.06,.06-.12,.08-.19,.07-.16,.13-.34,.19-.52,0-.02,.02-.06,.03-.08h0c.05-.16,.09-.32,.13-.49,.02-.12,.05-.24,.07-.35h0c.02-.12,.04-.25,.07-.37,.07-.55,.09-1.11,.05-1.69,0-.02,0-.05,0-.07-.03-.45-.1-.91-.21-1.37-.11-.49-.25-.98-.42-1.47-.04-.12,.14-.18,.2-.07,.21,.41,.4,.82,.57,1.22,.15,.35,.27,.69,.4,1.03,.12,.33,.21,.65,.3,.97,.22,.83,.37,1.66,.41,2.45,0,.06,0,.12,0,.16h0c.02,.57,0,1.14-.07,1.7Z"></path></g></g><g><path class="cls-3" d="M98.8,47.79h-2.92c-.31,0-.57-.26-.57-.57v-6.11c0-.31-.26-.57-.57-.57h-6.2c-.31,0-.57,.26-.57,.57v6.11c0,.31-.26,.57-.57,.57h-2.92c-.31,0-.57-.26-.57-.57V29.76c0-.2,.16-.38,.38-.38h3.31c.2,0,.38,.16,.38,.38v6.23c0,.31,.26,.57,.57,.57h6.2c.31,0,.57-.26,.57-.57v-6.23c0-.2,.16-.38,.38-.38h3.31c.2,0,.38,.16,.38,.38v17.46c0,.32-.25,.57-.57,.57Z"></path><path class="cls-3" d="M139.05,38.31c-.9-1.17-2.13-1.75-3.69-1.75h-5.81c-.46,0-.82-.16-1.07-.47-.24-.31-.37-.69-.37-1.13s.13-.85,.38-1.18c.26-.34,.6-.5,1.05-.5h9.29c.31,0,.55-.24,.55-.55v-2.78c0-.31-.24-.55-.55-.55h-9.85c-1.54,0-2.78,.58-3.69,1.73-.2,.25-.38,.52-.53,.8-.33,.61-.54,1.28-.64,2.02-.04,.31-.06,.64-.06,.97,0,.73,.09,1.41,.29,2.02,.2,.66,.52,1.25,.94,1.79l.12,.14c.89,1.05,2.09,1.58,3.58,1.58h5.8c.45,0,.78,.16,1.02,.48,.24,.31,.35,.71,.35,1.16v.02c0,.96-.82,1.71-1.77,1.71h-8.96c-.31,0-.55,.25-.55,.55v2.87c0,.31,.24,.55,.55,.55h9.94c1.55,0,2.78-.58,3.69-1.75,.82-1.05,1.22-2.34,1.22-3.87-.02-1.54-.42-2.82-1.24-3.87Z"></path><path class="cls-3" d="M152.25,33.27h-3.09c-.29,0-.53,.24-.53,.53v13.46c0,.29-.24,.53-.53,.53h-3c-.29,0-.53-.24-.53-.53v-13.46c0-.29-.24-.53-.53-.53h-3c-.29,0-.53-.24-.53-.53v-2.83c0-.29,.24-.53,.53-.53h11.21c.29,0,.53,.24,.53,.53v2.83c.02,.3-.22,.53-.51,.53Z"></path><path class="cls-3" d="M157.34,47.79h-2.67c-.38,0-.7-.31-.7-.7V30.09c0-.38,.31-.7,.7-.7h2.67c.38,0,.7,.31,.7,.7v17.01c0,.38-.31,.69-.7,.69Z"></path><path class="cls-3" d="M178.26,44.01c0,1.16-.48,2.13-1.44,2.89-.9,.71-1.98,1.07-3.23,1.07-1.08,0-2.05-.28-2.91-.85-.96-.64-1.64-1.55-2.04-2.74-.08-.24-.45-1.54-1.1-3.91-.59-2.14-1.11-3.82-1.54-5.03-.61-1.65-1.11-2.45-1.49-2.4-.25,.06-.42,.16-.53,.31s-.15,.35-.15,.61v13.11c0,.37-.3,.66-.66,.66h-2.82c-.37,0-.66-.3-.66-.66v-14.07c0-1.34,.51-2.36,1.52-3.07,.87-.6,1.99-.9,3.36-.9,1.83,0,3.28,.92,4.34,2.75,.72,1.22,1.41,3.2,2.06,5.94,.72,3,1.25,4.87,1.58,5.58,.18,.39,.45,.59,.83,.59,.2,0,.38-.08,.52-.24,.15-.16,.22-.38,.22-.66v-13.1c0-.37,.3-.66,.66-.66h2.82c.37,0,.66,.3,.66,.66v14.13Z"></path><path class="cls-3" d="M195.46,32.72c0,.31-.24,.55-.55,.55h-7.72c-1,0-1.79,.53-2.35,1.58-.51,.95-.76,2.13-.76,3.52s.27,2.67,.79,3.69c.58,1.12,1.36,1.68,2.32,1.68l1.61,.08h1.56c.96,0,1.76-.75,1.77-1.71v-.02c0-.45-.12-.85-.35-1.16-.24-.32-.57-.48-1.02-.48h-1.48c-.31,0-.55-.24-.55-.55v-2.78c0-.31,.24-.55,.55-.55h2.13c1.55,0,2.78,.58,3.69,1.75,.82,1.04,1.22,2.34,1.22,3.87s-.41,2.82-1.22,3.87c-.9,1.17-2.13,1.75-3.69,1.75h-4.94c-2.16,0-3.87-.94-5.12-2.82-1.13-1.69-1.69-3.76-1.69-6.23s.57-4.65,1.72-6.41c1.26-1.96,2.96-2.93,5.1-2.93h8.45c.31,0,.55,.24,.55,.55v2.78h0Z"></path><path class="cls-3" d="M122.31,38.39v.05s-.02,0-.02,0c-.38,.24-.79,.47-1.22,.7-.32,.17-.66,.34-1,.5-.91,.43-1.89,.85-2.93,1.22-1.11,.41-2.29,.78-3.51,1.11-.31,.09-.62,.16-.93,.24h0c-.87,.21-1.73,.39-2.56,.54l-.68,.12c-.74,.12-1.47,.21-2.18,.27-1.04,.09-2.03,.13-2.95,.1-.35-.6-.64-1.24-.85-1.91-.05-.15-.09-.3-.13-.45h0c-.03-.11-.05-.22-.08-.33h0c-.07-.3-.13-.6-.16-.9,0-.02,0-.05,0-.08-.05-.38-.08-.78-.08-1.19v-.03c0-.29,.02-.58,.04-.87,.02-.21,.05-.42,.08-.62,.03-.21,.08-.42,.13-.63,0-.02,0-.02,0-.04h0c.04-.18,.09-.36,.14-.53,.05-.19,.12-.38,.19-.56,.19-.51,.42-1,.68-1.47,.1-.17,.2-.35,.31-.51,.12-.18,.24-.35,.37-.53,.13-.17,.27-.34,.41-.5,.32-.37,.67-.72,1.04-1.04,.2-.17,.42-.35,.64-.5l.09-.07c.09-.06,.19-.13,.29-.2,.27-.17,.55-.34,.83-.49,.2-.1,.41-.2,.62-.29,.6-.26,1.25-.46,1.91-.59,.56-.11,1.13-.17,1.72-.18h.16c.56,0,1.1,.05,1.62,.13h0c.35,.06,.7,.13,1.04,.24,0,0,.02,0,.03,0,.06,.02,.12,.03,.18,.05,.21,.06,.42,.13,.62,.22,.79,.31,1.53,.71,2.2,1.2,.02,.02,.04,.03,.06,.05,.31,.24,.61,.49,.89,.75l.04,.04,.04,.04c.16,.15,.31,.31,.45,.47,.07,.08,.13,.15,.2,.23,0,0,0,0,0,0,0,0,.02,.02,.02,.03h0s.04,.05,.06,.07c0,0,0,0,0,.02l.09,.12c.06,.08,.13,.16,.19,.24,.06,.08,.12,.16,.18,.25,0,0,0,.02,.02,.02t0,.02h0c.07,.1,.14,.2,.2,.31,.02,.03,.04,.07,.06,.1,.02,.04,.05,.08,.08,.13,0,0,0,.02,.02,.02,0,.02,.02,.02,.02,.04,.1,.17,.2,.35,.28,.53,.09,.19,.18,.38,.27,.58,.16,.38,.31,.78,.42,1.19,.05,.17,.09,.35,.13,.53,.02,.07,.03,.13,.04,.2,.02,.09,.03,.19,.05,.29,.02,.08,.02,.16,.04,.24h0s0,.05,0,.09v.02c0,.06,.02,.12,.02,.18h0c0,.05,.02,.11,.02,.17v.04s0,.05,0,.07c0,.02,0,.04,0,.06h0c0,.24,.02,.45,.02,.67Z"></path><path class="cls-2" d="M122.31,38.44v.02c0,.24,0,.46-.03,.69,0,.11-.02,.22-.03,.33h0c-.06,.57-.18,1.12-.34,1.66-.05,.17-.1,.34-.16,.51-.12,.33-.25,.65-.41,.96h0c-.48,.99-1.12,1.87-1.89,2.63-.45,.44-.93,.84-1.45,1.18-.59,.39-1.22,.73-1.9,.99-.06,.02-.13,.05-.18,.07-.11,.04-.22,.08-.34,.11h0s-.03,.02-.05,.02h0s-.09,.03-.14,.04h0c-.07,.02-.14,.04-.21,.06-.05,.02-.11,.03-.17,.05-.05,.02-.12,.03-.17,.04-.12,.03-.24,.05-.35,.07-.05,0-.12,.02-.17,.03-.06,0-.12,.02-.18,.03-.06,0-.12,.02-.18,.02-.04,0-.09,0-.13,.02-.03,0-.06,0-.09,0-.05,0-.09,0-.13,.02-.05,0-.09,0-.14,.02-.04,0-.09,0-.13,0-.13,0-.25,.02-.38,.02-.09,0-.19,0-.28,0-.09,0-.17,0-.27,0-.07,0-.13,0-.2,0-.04,0-.08,0-.11,0-.13,0-.27-.02-.4-.03-.05,0-.11,0-.16-.02h-.02c-.06,0-.13-.02-.2-.02-.09-.02-.19-.03-.28-.04l-.14-.02s-.03,0-.05,0c-.03,0-.05,0-.09-.02-.16-.03-.31-.06-.45-.1-.03,0-.05-.02-.09-.02-.07-.02-.14-.04-.21-.05-.07-.02-.14-.04-.21-.06l-.21-.07s-.09-.03-.13-.05t-.02,0c-.1-.03-.2-.07-.3-.11,0,0-.02,0-.03,0-.04-.02-.09-.03-.13-.05-.27-.11-.54-.24-.8-.38-.06-.03-.13-.06-.18-.1-.05-.03-.11-.06-.16-.09-.21-.12-.42-.25-.61-.38-.05-.04-.11-.07-.16-.11-.08-.05-.15-.11-.23-.17-.02-.02-.04-.03-.06-.05-.04-.03-.07-.05-.11-.08-.23-.18-.45-.37-.65-.57-.2-.19-.38-.38-.56-.58h0c-.42-.48-.8-1-1.13-1.54h0c.92,.03,1.91,0,2.95-.1,.71-.06,1.44-.16,2.18-.27,.23-.04,.45-.07,.68-.12,.84-.15,1.69-.33,2.56-.54h0c.31-.08,.61-.16,.93-.24,1.22-.33,2.4-.7,3.51-1.11,1.04-.38,2.02-.79,2.93-1.22,.35-.16,.68-.34,1-.5,.43-.23,.84-.46,1.22-.7,.02-.03,.02-.03,.02-.04Z"></path><path class="cls-7" d="M122.31,38.39v.06c0,.35-.02,.68-.06,1.02-.06,.57-.17,1.12-.34,1.65-.15,.51-.34,1-.56,1.47h0c-.48,.99-1.12,1.88-1.89,2.65-.95,.94-2.09,1.69-3.36,2.17-.06,.02-.13,.05-.18,.07-.11,.04-.22,.08-.34,.11h0s-.03,.02-.05,.02h0s-.09,.03-.14,.04h0c-.07,.02-.14,.04-.21,.06-.05,.02-.11,.03-.17,.05-.05,.02-.12,.03-.17,.04-.12,.03-.24,.05-.35,.07-.05,0-.12,.02-.17,.03-.06,0-.12,.02-.18,.03-.06,0-.12,.02-.18,.02-.04,0-.09,0-.13,.02-.03,0-.06,0-.09,0-.05,0-.09,0-.13,.02-.05,0-.09,0-.14,.02-.04,0-.09,0-.13,0-.13,0-.25,.02-.38,.02-.09,0-.19,0-.28,0-.09,0-.17,0-.27,0-.07,0-.13,0-.2,0-.04,0-.08,0-.11,0-.13,0-.27-.02-.4-.03-.05,0-.11,0-.16-.02h-.02c-.06,0-.13-.02-.2-.02-.09-.02-.19-.03-.28-.04l-.14-.02s-.03,0-.05,0c-.03,0-.05,0-.09-.02-.16-.03-.31-.06-.45-.1-.03,0-.05-.02-.09-.02-.07-.02-.14-.04-.21-.05-.07-.02-.14-.04-.21-.06l-.21-.07s-.09-.03-.13-.05t-.02,0c-.1-.03-.2-.07-.3-.11,0,0-.02,0-.03,0-.04-.02-.09-.03-.13-.05-.27-.11-.54-.24-.8-.38-.06-.03-.13-.06-.18-.1-.05-.03-.11-.06-.16-.09-.21-.12-.42-.25-.61-.38-.05-.04-.11-.07-.16-.11-.08-.05-.15-.11-.23-.17-.02-.02-.04-.03-.06-.05-.27-.2-.52-.42-.75-.65-.2-.19-.38-.38-.56-.58-.05-.05-.09-.1-.13-.15,.05,.05,.11,.09,.16,.13,.25,.21,.51,.41,.78,.59h0c1.52,1.01,3.35,1.59,5.32,1.59,2.44,0,4.67-.9,6.36-2.39,.46-.4,.89-.85,1.25-1.33,.3-.38,.56-.78,.8-1.21,.4-.71,.71-1.48,.93-2.29,.05-.2,.09-.4,.13-.6,.05-.25,.09-.5,.12-.76,.02-.14,.03-.28,.04-.42,0-.13,.02-.27,.02-.42v-.36h0c0-.42-.04-.84-.09-1.25-.05-.41-.14-.8-.25-1.19-.12-.43-.27-.85-.44-1.25-.02-.05-.05-.12-.08-.17-.2-.43-.42-.85-.68-1.25-.16-.24-.32-.47-.49-.69-.02-.02-.04-.05-.05-.07-.07-.09-.15-.18-.23-.27,.13,.11,.25,.22,.38,.34,.19,.18,.37,.36,.54,.56,.07,.08,.13,.15,.2,.23,0,0,0,0,0,0,0,0,.02,.02,.02,.03h0s.05,.05,.07,.09l.09,.12c.06,.08,.13,.16,.19,.24,.06,.08,.12,.16,.18,.25,0,.02,.02,.02,.03,.04,.07,.1,.14,.2,.2,.31,.02,.03,.04,.07,.06,.1h0s.05,.08,.08,.13c0,0,0,.02,.02,.02,0,.02,.02,.02,.02,.04,.1,.17,.2,.35,.28,.53,.1,.19,.19,.38,.27,.58,.16,.38,.3,.78,.41,1.19,.05,.17,.09,.35,.13,.53,.02,.07,.03,.13,.04,.2,.02,.09,.03,.19,.05,.29,.02,.08,.02,.16,.04,.24h0s0,.05,0,.09v.02c0,.06,.02,.12,.02,.18h0c0,.05,.02,.11,.02,.17v.04s0,.05,0,.07c0,.02,0,.04,0,.06h0c.02,.22,.03,.44,.03,.65Z"></path><path class="cls-3" d="M98.49,7.57c0,.27-.22,.49-.49,.49h-9.35c-.45,0-.79,.16-1.05,.5-.26,.34-.38,.73-.38,1.18s.13,.82,.37,1.13c.24,.31,.6,.47,1.07,.47h5.81c1.55,0,2.78,.58,3.69,1.75,.82,1.04,1.22,2.34,1.22,3.87s-.41,2.82-1.22,3.87c-.9,1.17-2.13,1.75-3.69,1.75h-10.01c-.27,0-.49-.22-.49-.49v-2.93c0-.27,.22-.49,.49-.49h8.78c.93,0,1.72-.74,1.73-1.66v-.02c0-.45-.11-.82-.34-1.13-.23-.31-.56-.46-.99-.46h-5.62c-1.57,0-2.81-.58-3.72-1.73-.82-1.04-1.24-2.31-1.24-3.84s.42-2.78,1.24-3.83c.93-1.17,2.16-1.75,3.72-1.75h10c.27,0,.49,.22,.49,.49v2.84h0Z"></path><path class="cls-3" d="M104.93,22.09c0,.27-.17,.48-.44,.48h-3.01c-.27,0-.49-.22-.49-.49v-5.59c0-1.47,.36-2.67,1.09-3.57,.85-1.06,2.09-1.59,3.74-1.59h5.01c.46,0,.82-.16,1.07-.47,.25-.31,.38-.69,.38-1.12,0-.46-.12-.85-.36-1.16-.27-.35-.64-.53-1.09-.53h-9.36c-.27,0-.49-.22-.49-.49v-2.84c0-.27,.22-.49,.49-.49h10c1.57,0,2.81,.58,3.72,1.73,.82,1.04,1.24,2.32,1.24,3.84s-.42,2.78-1.24,3.83c-.91,1.16-2.16,1.75-3.72,1.75h-3.98c-1,0-1.71,.33-2.13,1-.29,.45-.43,1.03-.43,1.71,0,.25,0,.4,0,.45"></path><path class="cls-3" d="M133.32,22.48h-3.35c-.2,0-.39-.13-.45-.33l-4.69-13.82c-.03-.15-.13-.23-.31-.23s-.3,.08-.38,.23l-4.59,13.82c-.06,.2-.25,.33-.45,.33h-3.42c-.32,0-.56-.31-.46-.62,.29-.97,.77-2.5,1.44-4.59,.83-2.6,1.63-5.06,2.42-7.37,.87-2.58,1.4-4.02,1.59-4.31,.36-.51,.89-.9,1.58-1.18,.69-.27,1.44-.41,2.26-.41s1.56,.13,2.25,.41c.69,.27,1.22,.66,1.58,1.18,.22,.3,.76,1.73,1.62,4.27,.53,1.57,1.33,4.02,2.38,7.37,.55,1.75,1.04,3.29,1.46,4.61,.1,.31-.13,.63-.45,.63Z"></path><path class="cls-3" d="M149.63,21.97c0,.33-.27,.6-.6,.6h-8.41c-2.16,0-3.87-.94-5.12-2.82-1.13-1.69-1.69-3.76-1.69-6.23s.57-4.65,1.72-6.41c1.26-1.96,2.96-2.93,5.1-2.93h8.4c.33,0,.6,.27,.6,.6v2.7c0,.33-.27,.6-.6,.6h-7.74c-1,0-1.8,.53-2.37,1.6-.51,.96-.77,2.13-.77,3.54s.27,2.68,.8,3.71c.58,1.13,1.36,1.69,2.34,1.69h7.74c.33,0,.6,.27,.6,.6v2.78Z"></path><path class="cls-3" d="M166.17,8.12h-13.36c-.28,0-.51-.23-.51-.51v-2.9c0-.28,.23-.51,.51-.51h13.36c.28,0,.51,.23,.51,.51v2.91c0,.27-.24,.5-.51,.5Z"></path><path class="cls-3" d="M166.17,15.21h-13.36c-.28,0-.51-.23-.51-.51v-2.91c0-.28,.23-.51,.51-.51h13.36c.28,0,.51,.23,.51,.51v2.91c0,.29-.24,.51-.51,.51Z"></path><path class="cls-3" d="M166.17,22.48h-13.36c-.28,0-.51-.23-.51-.51v-2.91c0-.28,.23-.51,.51-.51h13.36c.28,0,.51,.23,.51,.51v2.91c0,.29-.24,.51-.51,.51Z"></path><path class="cls-8" d="M122.31,38.39v.06c0,.35-.02,.68-.05,1.02h0c-.06,.57-.18,1.12-.34,1.66-.15,.51-.35,1-.57,1.47h0c-.48,.99-1.12,1.87-1.89,2.63-.45,.44-.93,.84-1.45,1.18-.59,.39-1.22,.73-1.9,.99-.06,.02-.13,.05-.18,.07-.11,.04-.22,.08-.34,.11h0s-.03,.02-.05,.02h0s-.09,.03-.14,.04h0c-.07,.02-.14,.04-.21,.06-.05,.02-.11,.03-.17,.05-.05,.02-.12,.03-.17,.04-.12,.03-.24,.05-.35,.07-.05,0-.12,.02-.17,.03-.06,0-.12,.02-.18,.03-.06,0-.12,.02-.18,.02-.04,0-.09,0-.13,.02-.03,0-.06,0-.09,0-.05,0-.09,0-.13,.02-.05,0-.09,0-.14,.02-.04,0-.09,0-.13,0-.13,0-.25,.02-.38,.02-.09,0-.19,0-.28,0-.09,0-.17,0-.27,0-.07,0-.13,0-.2,0-.04,0-.08,0-.11,0-.13,0-.27-.02-.4-.03-.05,0-.11,0-.16-.02h-.02c-.06,0-.13-.02-.2-.02-.09-.02-.19-.03-.28-.04l-.14-.02s-.03,0-.05,0c-.03,0-.05,0-.09-.02-.16-.03-.31-.06-.45-.1-.03,0-.05-.02-.09-.02-.07-.02-.14-.04-.21-.05-.07-.02-.14-.04-.21-.06l-.21-.07s-.09-.03-.13-.05t-.02,0c-.1-.03-.2-.07-.3-.11,0,0-.02,0-.03,0-.04-.02-.09-.03-.13-.05-.27-.11-.54-.24-.8-.38-.06-.03-.13-.06-.18-.1-.05-.03-.11-.06-.16-.09-.21-.12-.42-.25-.61-.38-.05-.04-.11-.07-.16-.11-.08-.05-.15-.11-.23-.17-.02-.02-.04-.03-.06-.05-.04-.03-.07-.05-.11-.08-.23-.18-.45-.37-.65-.57-.2-.19-.38-.38-.56-.58-.42-.48-.8-1-1.13-1.54h0c-.35-.6-.64-1.24-.85-1.91-.05-.15-.09-.3-.13-.45h0c-.03-.11-.05-.22-.08-.33h0c-.07-.32-.13-.64-.17-.98-.05-.38-.08-.78-.08-1.19v-.06c0-.29,.02-.58,.04-.87,.02-.21,.05-.42,.08-.62,2.5,.14,5.4,.74,8.14,2.43,2.53,1.57,3.43,3.16,5.26,3.18,1.4,.02,3.36-.89,5.75-5.01,0,.04,0,.08,0,.12v.04s0,.05,0,.07c0,.02,0,.04,0,.06h0c0,.21,.02,.43,.02,.64Z"></path><path class="cls-8" d="M122.34,38.46c0,.11-.08,.91-.09,1.01h0c-.06,.57-.18,1.12-.34,1.66-.15,.51-.35,1-.57,1.47h0c-.48,.99-1.12,1.87-1.89,2.63-.45,.44-.93,.84-1.45,1.18-.59,.39-1.22,.73-1.9,.99-.06,.02-.13,.05-.18,.07-.11,.04-.22,.08-.34,.11h0s-.03,.02-.05,.02h0s-.09,.03-.14,.04h0c-.07,.02-.14,.04-.21,.06-.05,.02-.11,.03-.17,.05-.05,.02-.12,.03-.17,.04-.12,.03-.24,.05-.35,.07-.05,0-.12,.02-.17,.03-.06,0-.12,.02-.18,.03-.06,0-.12,.02-.18,.02-.04,0-.09,0-.13,.02-.03,0-.06,0-.09,0-.05,0-.09,0-.13,.02-.05,0-.09,0-.14,.02-.04,0-.09,0-.13,0-.13,0-.25,.02-.38,.02-.09,0-.19,0-.28,0-.09,0-.17,0-.27,0-.07,0-.13,0-.2,0-.04,0-.08,0-.11,0-.13,0-.27-.02-.4-.03-.05,0-.11,0-.16-.02h-.02c-.06,0-.13-.02-.2-.02-.09-.02-.19-.03-.28-.04l-.14-.02s-.03,0-.05,0c-.03,0-.05,0-.09-.02-.16-.03-.31-.06-.45-.1-.03,0-.05-.02-.09-.02-.07-.02-.14-.04-.21-.05-.07-.02-.14-.04-.21-.06l-.21-.07s-.09-.03-.13-.05t-.02,0c-.1-.03-.2-.07-.3-.11,0,0-.02,0-.03,0-.04-.02-.09-.03-.13-.05-.27-.11-.54-.24-.8-.38-.06-.03-.13-.06-.18-.1-.05-.03-.11-.06-.16-.09-.21-.12-.42-.25-.61-.38-.05-.04-.11-.07-.16-.11-.08-.05-.15-.11-.23-.17-.02-.02-.04-.03-.06-.05-.04-.03-.07-.05-.11-.08-.23-.18-.45-.37-.65-.57-.2-.19-.38-.38-.56-.58-.42-.48-.8-1-1.13-1.54h0c-.35-.6-.64-1.24-.85-1.91-.05-.15-.09-.3-.13-.45h0c-.03-.11-.05-.22-.08-.33h0c-.07-.3-.13-.6-.16-.9,.78,.52,4.57,2.67,6.51,1.84,2.05-.89,8.59-5.55,12.74-3.06Z"></path><path class="cls-8" d="M121.75,41.64c-.12,.33-.25,.65-.41,.96h0c-.48,.99-1.12,1.87-1.89,2.63-.45,.44-.93,.84-1.45,1.18-.59,.39-1.22,.73-1.9,.99-.06,.02-.13,.05-.18,.07-.11,.04-.22,.08-.34,.11h0s-.03,.02-.05,.02h0s-.09,.03-.14,.04h0c-.07,.02-.14,.04-.21,.06-.05,.02-.11,.03-.17,.05-.05,.02-.12,.03-.17,.04-.12,.03-.24,.05-.35,.07-.05,0-.12,.02-.17,.03-.06,0-.12,.02-.18,.03-.06,0-.12,.02-.18,.02-.04,0-.09,0-.13,.02-.03,0-.06,0-.09,0-.05,0-.09,0-.13,.02-.05,0-.09,0-.14,.02-.04,0-.09,0-.13,0-.13,0-.25,.02-.38,.02-.09,0-.19,0-.28,0-.09,0-.17,0-.27,0-.07,0-.13,0-.2,0-.04,0-.08,0-.11,0-.13,0-.27-.02-.4-.03-.05,0-.11,0-.16-.02h-.02c-.06,0-.13-.02-.2-.02-.09-.02-.19-.03-.28-.04l-.14-.02s-.03,0-.05,0c-.03,0-.05,0-.09-.02-.16-.03-.31-.06-.45-.1-.03,0-.05-.02-.09-.02-.07-.02-.14-.04-.21-.05-.07-.02-.14-.04-.21-.06l-.21-.07s-.09-.03-.13-.05t-.02,0c-.1-.03-.2-.07-.3-.11,0,0-.02,0-.03,0-.04-.02-.09-.03-.13-.05-.27-.11-.54-.24-.8-.38-.06-.03-.13-.06-.18-.1-.05-.03-.11-.06-.16-.09-.21-.12-.42-.25-.61-.38-.05-.04-.11-.07-.16-.11-.08-.05-.15-.11-.23-.17-.02-.02-.04-.03-.06-.05-.04-.03-.07-.05-.11-.08-.23-.18-.45-.37-.65-.57-.2-.19-.38-.38-.56-.58,.12-.22,1.59-2.67,6.36-.96,4.98,1.8,9.07-2.63,9.94-2.22Z"></path><path class="cls-6" d="M127.61,34.39c-.61-2.27-3.84-3.14-7.95-3.01-.12,0-.23,0-.35,.02l.04,.04c.17,.16,.34,.34,.49,.52,.07,.08,.13,.15,.2,.23,0,0,0,0,0,0,0,0,.02,.02,.02,.03h0s.04,.05,.06,.07c0,0,0,0,0,.02l.09,.12c.06,.08,.13,.16,.19,.24,.06,.08,.12,.16,.18,.25,0,0,0,.02,.02,.02,0,0,0,.02,.02,.02,.07,.1,.14,.2,.2,.31,.02,.03,.04,.07,.06,.1,.02,.04,.05,.08,.08,.13,0,0,0,.02,.02,.02,2.68,.07,4.34,.66,4.55,1.43,.11,.41-.24,1.12-1.19,2-.31,.28-.67,.57-1.1,.88-.15,.11-.31,.21-.46,.32-.14,.09-.29,.19-.43,.28,0,0-.02,.02-.03,.02h0s-.02,0-.02,0c-.38,.24-.79,.47-1.22,.7-.32,.17-.66,.34-1,.5-.91,.43-1.89,.85-2.93,1.22-1.11,.41-2.29,.78-3.51,1.11-.31,.09-.62,.16-.93,.24h0c-.87,.21-1.73,.39-2.56,.54l-.68,.12c-.74,.12-1.47,.21-2.18,.27-1.04,.09-2.03,.13-2.95,.1h0c-.18,0-.37-.02-.54-.02-.35-.02-.67-.05-.98-.09-.08,0-.16-.02-.23-.03-1.57-.23-2.45-.68-2.71-1.12h0s-.08-.16-.08-.31c0-.63,.82-1.76,2.77-3.04,.15-.1,.31-.2,.46-.3,0-.29,.02-.58,.04-.87,.02-.21,.05-.42,.08-.62,.03-.21,.08-.42,.13-.63,0-.02,0-.02,0-.04h0c.04-.18,.09-.36,.14-.53-.09,.05-.16,.09-.25,.13-.64,.35-1.24,.7-1.8,1.07-3.4,2.24-3.92,4.11-3.69,5.34,.02,.2,.1,.38,.11,.41h0c.39,1.11,1.64,2.38,5.2,2.73,.13,.02,.27,.02,.42,.03,.08,0,.16,0,.24,.02,.15,0,.31,.02,.46,.02,.27,0,.55,.02,.83,.02,.35,0,.71,0,1.08-.02h0c.09,0,.17,0,.26,0h0c.62-.03,1.26-.09,1.91-.16h0c1.91-.22,3.94-.6,5.99-1.15,.6-.16,1.18-.33,1.76-.51,.8-.25,1.58-.52,2.34-.81,.6-.23,1.17-.46,1.73-.71,.67-.29,1.3-.6,1.91-.91h0c.74-.38,1.42-.78,2.05-1.2,.55-.36,1.03-.72,1.44-1.07,2.23-1.89,2.45-3.44,2.18-4.48Z"></path></g></svg> 