<?xml version="1.0" standalone="no"?>
<!DOCTYPE svg PUBLIC "-//W3C//DTD SVG 20010904//EN"
 "http://www.w3.org/TR/2001/REC-SVG-20010904/DTD/svg10.dtd">
<svg version="1.0" xmlns="http://www.w3.org/2000/svg"
 width="960.000000pt" height="960.000000pt" viewBox="0 0 960.000000 960.000000"
 preserveAspectRatio="xMidYMid meet">
<metadata>
Created by potrace 1.14, written by Peter Selinger 2001-2017
</metadata>
<g transform="translate(0.000000,960.000000) scale(0.100000,-0.100000)"
fill="#000000" stroke="none">
<path d="M1905 9583 c-53 -28 -87 -96 -79 -155 5 -28 115 -294 190 -453 21
-46 45 -103 49 -115 1 -3 12 -27 24 -55 28 -60 34 -73 105 -240 31 -71 61
-138 66 -147 6 -10 10 -24 10 -32 0 -8 3 -16 8 -18 7 -3 47 -91 65 -145 6 -18
14 -33 19 -33 4 0 8 -7 8 -15 0 -8 13 -42 29 -77 59 -129 81 -180 107 -241 14
-34 35 -82 47 -107 11 -25 21 -47 22 -50 1 -3 9 -23 19 -45 10 -22 31 -69 46
-105 15 -36 37 -87 50 -115 12 -27 28 -63 35 -80 7 -16 25 -57 40 -90 37 -83
43 -98 125 -285 40 -91 80 -183 90 -205 10 -22 39 -89 65 -150 26 -60 58 -131
71 -157 13 -27 21 -48 19 -48 -2 0 9 -26 24 -57 15 -32 43 -94 62 -138 18 -44
36 -82 39 -85 3 -3 6 -10 7 -16 1 -7 13 -36 26 -65 21 -46 64 -144 149 -339
11 -25 28 -63 38 -85 10 -22 33 -74 50 -115 18 -41 44 -102 59 -135 15 -33 40
-91 56 -130 16 -38 32 -74 36 -80 40 -55 57 -186 32 -245 -23 -54 -86 -103
-148 -116 -11 -2 -534 -4 -1163 -4 -1244 0 -1168 3 -1230 -54 -72 -65 -80
-208 -16 -273 7 -7 14 -17 16 -21 1 -5 59 -48 128 -96 69 -48 132 -93 140
-100 9 -7 22 -15 30 -19 8 -4 85 -56 170 -116 211 -149 467 -328 500 -351 8
-5 69 -48 135 -95 66 -47 127 -88 135 -92 8 -4 21 -12 30 -19 8 -7 103 -74
210 -148 107 -74 200 -140 207 -145 7 -6 16 -11 22 -11 5 0 11 -4 13 -8 1 -4
48 -39 103 -77 202 -138 260 -179 265 -186 3 -3 16 -12 30 -19 14 -7 39 -24
55 -36 17 -13 118 -84 225 -158 107 -75 200 -139 205 -144 10 -8 146 -102 190
-132 13 -8 49 -33 82 -56 146 -102 173 -121 613 -427 124 -86 230 -160 235
-165 6 -4 46 -32 90 -62 44 -29 82 -57 83 -62 2 -4 9 -8 16 -8 7 0 21 -9 31
-20 10 -11 24 -20 31 -20 7 0 14 -3 16 -7 2 -5 17 -17 33 -29 17 -11 62 -42
100 -69 39 -27 117 -82 175 -122 58 -39 110 -76 115 -80 6 -5 62 -44 125 -87
63 -44 117 -82 120 -86 3 -4 10 -9 15 -11 11 -4 397 -270 405 -279 3 -3 25
-19 50 -35 25 -16 47 -32 50 -35 3 -3 13 -9 22 -15 45 -26 233 -159 236 -167
2 -4 8 -8 13 -8 11 0 113 -71 117 -82 2 -5 7 -8 12 -8 7 0 187 -122 241 -163
8 -7 23 -16 31 -22 19 -12 179 -122 253 -174 28 -19 93 -64 145 -100 52 -36
97 -67 100 -70 17 -19 83 -39 123 -37 39 1 53 8 79 34 28 27 32 38 32 84 -1
38 -9 70 -32 116 -16 34 -28 62 -26 62 2 0 -5 17 -15 38 -22 42 -26 52 -141
317 -45 105 -95 218 -111 253 -16 34 -40 93 -55 130 -15 37 -31 69 -36 70 -4
2 -8 9 -8 16 0 6 -72 176 -161 376 -88 201 -161 370 -163 375 -3 13 -42 99
-67 148 -10 20 -17 37 -15 37 2 0 -9 27 -25 60 -16 33 -29 62 -29 65 0 2 -11
28 -24 57 -13 29 -56 127 -96 218 -39 91 -78 179 -85 195 -7 17 -30 68 -50
115 -21 47 -48 109 -61 138 -13 29 -24 55 -24 57 0 2 -13 32 -29 67 -16 35
-60 133 -96 218 -37 85 -76 174 -86 198 -39 88 -58 130 -109 247 -29 66 -61
139 -71 162 -18 40 -40 92 -44 103 -1 3 -9 22 -19 43 -9 21 -27 62 -41 92 -13
30 -26 71 -29 91 -4 20 -8 39 -10 43 -20 33 -27 258 -10 324 7 26 12 48 11 50
0 1 8 19 18 40 20 43 75 101 114 122 32 16 138 45 144 39 3 -3 60 -4 128 -4
68 0 131 1 139 1 8 0 81 -1 163 -3 81 -2 147 1 147 5 0 5 5 5 11 1 14 -8 173
-9 187 0 6 3 13 3 15 -1 3 -5 290 -8 639 -8 l633 0 48 24 c46 22 102 85 91
103 -3 4 -1 8 4 8 18 0 10 113 -10 154 -32 63 -31 63 -288 238 -41 28 -77 54
-80 57 -3 3 -54 39 -115 80 -105 71 -186 129 -212 151 -7 5 -15 10 -18 10 -3
0 -29 17 -58 38 -29 21 -97 69 -152 107 -55 38 -101 72 -103 77 -2 4 -8 8 -13
8 -6 0 -33 17 -62 38 -29 21 -95 68 -147 103 -144 99 -284 197 -295 206 -5 4
-22 16 -37 26 -16 10 -28 22 -28 27 0 9 129 212 150 237 5 7 10 14 10 17 0 5
60 98 86 133 9 12 15 25 14 29 -1 4 2 10 7 13 13 9 213 321 213 332 0 5 5 9
10 9 6 0 10 7 10 15 0 8 5 15 10 15 6 0 10 7 10 15 0 8 5 15 10 15 6 0 10 7
10 15 0 8 5 15 10 15 6 0 10 5 10 11 0 7 16 34 35 60 19 27 35 51 35 53 0 6
126 197 139 213 6 7 11 14 11 17 0 5 58 98 90 146 35 52 140 214 140 216 0 2
13 22 29 46 15 24 31 53 34 65 7 30 -24 68 -75 94 -58 30 -196 70 -243 70 -52
1 -135 -30 -149 -56 -6 -11 -13 -22 -16 -25 -3 -3 -34 -50 -70 -105 -35 -55
-67 -101 -72 -103 -4 -2 -8 -8 -8 -13 0 -8 -49 -86 -77 -124 -23 -29 -63 -96
-62 -101 0 -4 -3 -10 -8 -13 -14 -10 -53 -70 -53 -81 0 -5 -4 -10 -8 -10 -4 0
-16 -15 -27 -32 -10 -18 -58 -93 -107 -167 -48 -73 -88 -135 -88 -138 0 -2 -5
-9 -11 -16 -6 -7 -57 -84 -114 -172 -58 -88 -109 -167 -115 -175 -5 -8 -44
-67 -86 -130 -41 -63 -80 -114 -86 -112 -6 2 -54 33 -107 69 -53 37 -139 96
-191 132 -52 36 -99 69 -105 73 -5 5 -73 52 -150 106 -211 147 -254 176 -272
187 -9 6 -23 16 -32 24 -12 10 -391 274 -495 343 -10 7 -28 20 -40 29 -20 15
-125 88 -170 119 -145 98 -151 101 -180 96 -30 -6 -54 -30 -57 -56 -2 -19 -2
-14 6 -88 4 -34 9 -86 11 -115 3 -28 6 -68 8 -87 2 -19 7 -64 11 -100 3 -36 8
-83 11 -105 2 -22 7 -60 9 -85 3 -25 7 -61 9 -80 3 -19 8 -66 11 -105 3 -38 7
-81 10 -95 3 -14 7 -53 9 -87 3 -34 7 -81 10 -105 3 -24 8 -70 11 -103 3 -33
8 -78 10 -100 3 -22 7 -65 10 -95 3 -30 7 -73 10 -95 2 -22 7 -65 10 -95 3
-30 8 -75 11 -100 7 -58 12 -111 18 -187 3 -33 7 -78 10 -100 6 -38 14 -112
21 -188 1 -22 6 -65 9 -95 3 -30 8 -75 11 -100 5 -54 14 -138 21 -200 3 -25 6
-61 8 -80 2 -19 6 -62 10 -95 8 -70 14 -127 22 -210 3 -33 8 -76 10 -95 2 -19
6 -62 9 -95 2 -33 5 -60 5 -60 1 0 4 -20 6 -45 6 -56 32 -94 67 -95 40 -3 29
-17 227 295 58 91 110 171 117 178 7 7 13 19 13 26 0 7 9 21 20 31 11 10 20
22 20 27 0 5 15 30 32 56 53 76 138 213 138 222 0 5 3 10 8 12 6 3 58 80 87
130 33 57 110 174 117 176 4 2 8 7 8 12 0 11 143 234 153 238 4 2 7 9 7 16 0
7 11 26 25 42 14 16 25 33 25 37 0 4 18 35 40 67 22 32 40 63 40 69 0 5 4 11
8 13 8 3 256 390 297 462 22 39 35 44 62 21 10 -8 90 -64 178 -125 88 -61 164
-115 168 -119 5 -5 -32 -68 -81 -142 -48 -74 -119 -181 -157 -239 -37 -58 -90
-138 -117 -178 -26 -40 -48 -75 -48 -78 0 -3 -6 -11 -12 -19 -11 -11 -125
-182 -163 -244 -6 -9 -37 -56 -70 -106 -33 -49 -66 -102 -73 -117 -8 -16 -18
-28 -23 -28 -5 0 -9 -6 -9 -13 0 -8 -11 -27 -24 -42 -13 -15 -30 -40 -38 -54
-7 -14 -19 -32 -25 -39 -7 -7 -13 -17 -13 -22 0 -5 -6 -15 -13 -22 -6 -7 -37
-51 -67 -98 -30 -47 -58 -86 -62 -88 -5 -2 -8 -9 -8 -16 0 -6 -7 -21 -15 -31
-17 -21 -176 -262 -284 -430 -36 -55 -67 -102 -70 -105 -8 -6 -29 -41 -38 -60
-4 -8 -15 -24 -25 -34 -10 -11 -18 -26 -18 -33 0 -7 -4 -13 -10 -13 -5 0 -10
-6 -10 -14 0 -7 -13 -29 -30 -47 -16 -19 -30 -38 -30 -42 0 -17 -122 -188
-162 -228 -69 -68 -148 -108 -248 -124 -19 -3 -42 -8 -50 -10 -16 -5 -129 -18
-145 -17 -75 3 -126 53 -177 171 -20 48 -76 253 -108 401 -38 175 -48 226 -54
255 -2 17 -7 41 -10 55 -3 14 -8 43 -11 65 -7 49 -13 80 -15 80 -1 0 -3 14 -5
30 -2 17 -6 44 -9 60 -3 17 -8 48 -11 70 -3 22 -7 51 -10 65 -6 33 -16 106
-20 150 -4 39 -12 97 -20 150 -3 19 -8 55 -10 80 -2 25 -7 68 -11 95 -3 28 -8
68 -9 89 -2 22 -6 60 -10 85 -3 25 -8 69 -10 96 -5 59 -12 130 -19 200 -3 28
-8 84 -11 125 -4 41 -8 91 -10 110 -11 106 -17 171 -20 220 -2 30 -4 55 -5 55
-1 0 -3 25 -6 55 -2 30 -7 73 -10 95 -3 22 -7 69 -9 105 -3 36 -7 79 -9 95 -5
27 -11 79 -20 175 -2 19 -7 55 -10 80 -3 25 -8 61 -10 80 -2 19 -7 55 -10 80
-4 25 -8 59 -11 75 -2 17 -6 41 -9 54 -3 13 -6 41 -8 63 -1 22 -6 42 -10 44
-5 3 -6 9 -3 14 3 4 0 32 -5 61 -6 30 -13 70 -16 89 -3 19 -12 69 -21 110 -8
41 -17 89 -20 105 -2 17 -9 48 -15 70 -6 22 -12 49 -14 60 -1 11 -19 88 -39
170 -36 144 -71 235 -111 286 -31 39 -254 260 -312 309 -30 25 -64 54 -76 65
-12 11 -45 40 -72 65 -28 25 -69 61 -93 80 -24 19 -53 43 -64 54 -12 10 -38
30 -57 45 -19 14 -44 34 -54 43 -11 10 -28 20 -38 24 -10 3 -18 9 -18 14 0 4
-20 21 -45 37 -25 15 -45 31 -45 36 0 4 -4 7 -10 7 -5 0 -18 7 -27 15 -10 8
-121 89 -248 181 -225 163 -415 303 -425 314 -3 3 -39 30 -79 60 -66 48 -81
55 -125 56 -30 1 -63 -4 -81 -13z"/>
</g>
</svg>
