<?xml version="1.0" encoding="utf-8"?>
<!-- Generator: Adobe Illustrator 24.2.3, SVG Export Plug-In . SVG Version: 6.00 Build 0)  -->
<svg version="1.1" id="Layer_1" xmlns="http://www.w3.org/2000/svg" xmlns:xlink="http://www.w3.org/1999/xlink" x="0px" y="0px"
	 viewBox="0 0 145 139.9" style="enable-background:new 0 0 145 139.9;" xml:space="preserve">
<style type="text/css">
	.st0{fill:url(#SVGID_1_);}
	.st1{fill:url(#SVGID_2_);}
	.st2{fill:url(#SVGID_3_);}
	.st3{fill:url(#SVGID_4_);}
	.st4{fill:url(#SVGID_5_);}
	.st5{fill:url(#SVGID_6_);}
	.st6{fill:url(#SVGID_7_);}
	.st7{fill:url(#SVGID_8_);}
	.st8{fill:url(#SVGID_9_);}
	.st9{fill:url(#SVGID_10_);}
	.st10{fill:url(#SVGID_11_);}
	.st11{fill:url(#SVGID_12_);}
	.st12{fill:url(#SVGID_13_);}
	.st13{fill:url(#SVGID_14_);}
	.st14{fill:url(#SVGID_15_);}
	.st15{fill:#FFFFFF;}
	.st16{fill:url(#SVGID_16_);}
	.st17{fill:url(#SVGID_17_);}
	.st18{fill:url(#SVGID_18_);}
	.st19{fill:url(#SVGID_19_);}
	.st20{fill:url(#SVGID_20_);}
	.st21{fill:url(#SVGID_21_);}
	.st22{fill:url(#SVGID_22_);}
	.st23{fill:url(#SVGID_23_);}
	.st24{fill:url(#SVGID_24_);}
	.st25{fill:url(#SVGID_25_);}
	.st26{fill:url(#SVGID_26_);}
	.st27{fill:url(#SVGID_27_);}
	.st28{fill:url(#SVGID_28_);}
	.st29{fill:url(#SVGID_29_);}
	.st30{fill:url(#SVGID_30_);}
	.st31{fill:url(#SVGID_31_);}
	.st32{fill:url(#SVGID_32_);}
	.st33{fill:url(#SVGID_33_);}
	.st34{fill:url(#SVGID_34_);}
	.st35{fill:url(#SVGID_35_);}
	.st36{fill:url(#SVGID_36_);}
	.st37{fill:url(#SVGID_37_);}
	.st38{fill:url(#SVGID_38_);}
	.st39{fill:url(#SVGID_39_);}
	.st40{fill:url(#SVGID_40_);}
	.st41{fill:url(#SVGID_41_);}
	.st42{fill:url(#SVGID_42_);}
	.st43{fill:url(#SVGID_43_);}
	.st44{fill:url(#SVGID_44_);}
</style>
<g>
	<g>
		<linearGradient id="SVGID_1_" gradientUnits="userSpaceOnUse" x1="72.1545" y1="36.791" x2="72.1545" y2="106.3511">
			<stop  offset="0" style="stop-color:#04C9FE"/>
			<stop  offset="0.1774" style="stop-color:#04C9FE"/>
			<stop  offset="0.8441" style="stop-color:#182AB4"/>
			<stop  offset="1" style="stop-color:#182AB4"/>
		</linearGradient>
		<path class="st0" d="M92,59.1c0-1-0.3-1.9-0.8-2.7c-1-1.6-2.6-2.5-4.5-2.5H57.5c-1.8,0-3.5,0.9-4.5,2.5c-0.5,0.8-0.8,1.8-0.8,2.7
			c0,0.8,0.2,1.6,0.6,2.4l14.6,28.9c0.9,1.8,2.7,2.9,4.7,2.9c2,0,3.8-1.1,4.7-2.9l14.6-28.9C91.8,60.7,92,59.9,92,59.1z M83.5,72.8
			l-0.8,1.6c-0.5,0.9-1.1,1.7-1.9,2.4c-2.2,2.2-5.3,3.6-8.7,3.6c-3.4,0-6.5-1.4-8.7-3.6c-0.7-0.7-1.3-1.5-1.9-2.4l-0.8-1.6
			c-0.6-1.4-0.9-3-0.9-4.7c0-3.4,1.4-6.5,3.6-8.7c2.1-2.1,5-3.4,8.2-3.6h1.1c3.2,0.1,6.1,1.5,8.2,3.6c2.2,2.2,3.6,5.3,3.6,8.7
			C84.5,69.8,84.1,71.3,83.5,72.8z M54.2,59.1c0-0.6,0.2-1.2,0.5-1.7c0.6-1,1.6-1.6,2.8-1.6H65c-4,2.3-6.8,6.6-7,11.4l-3.4-6.7
			C54.4,60.1,54.2,59.6,54.2,59.1z M75.1,89.5c-0.6,1.1-1.6,1.8-2.9,1.8c-1.3,0-2.3-0.7-2.9-1.8L64.4,80c2.2,1.4,4.9,2.3,7.7,2.3
			c2.8,0,5.5-0.8,7.7-2.3L75.1,89.5z M89.7,60.6l-3.4,6.7c-0.3-4.9-3-9.1-7-11.4h7.5c1.2,0,2.2,0.6,2.8,1.6c0.3,0.6,0.5,1.1,0.5,1.7
			C90.1,59.6,89.9,60.1,89.7,60.6z"/>
		<linearGradient id="SVGID_2_" gradientUnits="userSpaceOnUse" x1="72.1551" y1="36.791" x2="72.1551" y2="106.3511">
			<stop  offset="0" style="stop-color:#04C9FE"/>
			<stop  offset="0.1774" style="stop-color:#04C9FE"/>
			<stop  offset="0.8441" style="stop-color:#182AB4"/>
			<stop  offset="1" style="stop-color:#182AB4"/>
		</linearGradient>
		<path class="st1" d="M75.4,61.7c0-0.9,0.4-1.8,1.1-2.4c-1.3-0.6-2.8-1-4.3-1c-5.4,0-9.7,4.4-9.7,9.7c0,5.4,4.4,9.7,9.7,9.7
			c5.4,0,9.7-4.4,9.7-9.7c0-1.6-0.4-3-1-4.3c-0.6,0.7-1.4,1.1-2.4,1.1C76.8,64.9,75.4,63.5,75.4,61.7z"/>
	</g>
	<linearGradient id="SVGID_3_" gradientUnits="userSpaceOnUse" x1="76.0359" y1="37.4941" x2="76.0359" y2="104.26">
		<stop  offset="0" style="stop-color:#04C9FE"/>
		<stop  offset="0.1774" style="stop-color:#04C9FE"/>
		<stop  offset="0.8441" style="stop-color:#182AB4"/>
		<stop  offset="1" style="stop-color:#182AB4"/>
	</linearGradient>
	<path class="st2" d="M106.9,77.8L106.9,77.8c7.5,2.2,12.4,5.7,12.4,9.7c0,6.6-13.5,12-30.1,12c-7.3,0-14.1-1-19.3-2.8l0,0
		c-1.8-0.6-3.4-1.8-4.4-3.8L49.6,61.7c-1.3-2.5-1-5.3,0.3-7.4c-12.7,1.1-20.8,5.4-20.8,8.4c0,2.7,6.7,6.5,17.4,8l0.2,0
		c0.4,0.1,0.9,0.1,1.3,0.2c0.1,0,0.2,0,0.3,0c0.4,0,0.8,0.1,1.2,0.1c0.1,0,0.2,0,0.3,0c0.5,0,1,0.1,1.6,0.1
		c-4.4,0.5-8.3,0.5-11.7,0.2v5.6h0V84c0,2.8,1.5,5.5,4,6.9L68.2,105c1.2,0.7,2.6,1.1,4,1.1s2.7-0.4,4-1.1l2.2-1.3
		c-5.1-1.2-9.7-2.9-13.3-4.8c0.6,0.2,1.2,0.5,1.8,0.7l0.2,0.1c1.3,0.4,2.7,0.9,4.1,1.2l0.1,0c0.7,0.2,1.4,0.3,2.2,0.5l0.2,0
		c1.5,0.3,3.1,0.6,4.7,0.8l0.2,0c0.8,0.1,1.6,0.2,2.5,0.3l0.2,0c0.8,0.1,1.7,0.2,2.6,0.2l0,0l0,0c1.7,0.1,3.5,0.2,5.4,0.2
		c18.7,0,33.8-6.1,33.8-13.6C122.9,84.5,116.5,80.2,106.9,77.8z"/>
	<linearGradient id="SVGID_4_" gradientUnits="userSpaceOnUse" x1="68.985" y1="32.8727" x2="68.985" y2="107.0274">
		<stop  offset="0" style="stop-color:#04C9FE"/>
		<stop  offset="0.1774" style="stop-color:#04C9FE"/>
		<stop  offset="0.8441" style="stop-color:#182AB4"/>
		<stop  offset="1" style="stop-color:#182AB4"/>
	</linearGradient>
	<path class="st3" d="M96.7,79.3L96.7,79.3c-1-0.1-2-0.2-3.1-0.3c4.1-0.5,7.8-0.5,11-0.2V58.6h0v-2.7c0-2.8-1.5-5.5-4-6.9L76.1,34.8
		c-1.2-0.7-2.6-1.1-4-1.1s-2.7,0.4-4,1.1l-16.5,9.5c2.1,0.1,9.3,0.6,17.8,4c-4-0.7-8.5-1.1-13.1-1.1v0c-0.2,0-0.3,0-0.5,0
		c-18.7,0-33.8,6.1-33.8,13.6c0,4.8,6.1,9,15.4,11.4v-0.1c-7.1-2.2-11.7-5.6-11.7-9.5c0-6.6,13.4-11.9,30-12l0,0c0.2,0,0.4,0,0.6,0
		H88c5.6,0,9.3,6,6.8,11L78.9,92.9c-0.4,0.9-1,1.6-1.7,2.2c3.5,0.6,7.5,1,11.9,1c16.1,0,26.8-5.2,26.8-8.6
		C115.9,84.6,108.5,80.6,96.7,79.3z"/>
</g>
</svg>
