<?xml version="1.0" encoding="utf-8"?>
<!-- Generator: Adobe Illustrator 24.2.3, SVG Export Plug-In . SVG Version: 6.00 Build 0)  -->
<svg version="1.1" id="Layer_1" xmlns="http://www.w3.org/2000/svg" xmlns:xlink="http://www.w3.org/1999/xlink" x="0px" y="0px"
	 viewBox="0 0 274.6 139.9" style="enable-background:new 0 0 274.6 139.9;" xml:space="preserve">
<style type="text/css">
	.st0{fill:url(#SVGID_1_);}
	.st1{fill:url(#SVGID_2_);}
	.st2{fill:url(#SVGID_3_);}
	.st3{fill:url(#SVGID_4_);}
	.st4{fill:url(#SVGID_5_);}
	.st5{fill:url(#SVGID_6_);}
	.st6{fill:url(#SVGID_7_);}
	.st7{fill:url(#SVGID_8_);}
	.st8{fill:url(#SVGID_9_);}
	.st9{fill:url(#SVGID_10_);}
	.st10{fill:url(#SVGID_11_);}
	.st11{fill:url(#SVGID_12_);}
	.st12{fill:url(#SVGID_13_);}
	.st13{fill:url(#SVGID_14_);}
	.st14{fill:url(#SVGID_15_);}
	.st15{fill:#FFFFFF;}
	.st16{fill:url(#SVGID_16_);}
	.st17{fill:url(#SVGID_17_);}
	.st18{fill:url(#SVGID_18_);}
	.st19{fill:url(#SVGID_19_);}
	.st20{fill:url(#SVGID_20_);}
	.st21{fill:url(#SVGID_21_);}
	.st22{fill:url(#SVGID_22_);}
	.st23{fill:url(#SVGID_23_);}
	.st24{fill:url(#SVGID_24_);}
	.st25{fill:url(#SVGID_25_);}
	.st26{fill:url(#SVGID_26_);}
	.st27{fill:url(#SVGID_27_);}
	.st28{fill:url(#SVGID_28_);}
	.st29{fill:url(#SVGID_29_);}
	.st30{fill:url(#SVGID_30_);}
	.st31{fill:url(#SVGID_31_);}
	.st32{fill:url(#SVGID_32_);}
	.st33{fill:url(#SVGID_33_);}
	.st34{fill:url(#SVGID_34_);}
	.st35{fill:url(#SVGID_35_);}
	.st36{fill:url(#SVGID_36_);}
	.st37{fill:url(#SVGID_37_);}
	.st38{fill:url(#SVGID_38_);}
	.st39{fill:url(#SVGID_39_);}
	.st40{fill:url(#SVGID_40_);}
	.st41{fill:url(#SVGID_41_);}
	.st42{fill:url(#SVGID_42_);}
	.st43{fill:url(#SVGID_43_);}
	.st44{fill:url(#SVGID_44_);}
</style>
<g>
	<g>
		<path class="st15" d="M96.5,58c0.7-0.2,1.4-0.2,2.1-0.3c0.6,0,1.2,0,1.6,0c0.6,0,1.2,0,1.9,0c0.6,0,1.2,0.1,1.7,0.2l5.2,17.9
			l5.1-17.9c0.5-0.1,1.1-0.2,1.7-0.2c0.6,0,1.2-0.1,1.8-0.1c0.5,0,1,0,1.6,0c0.6,0,1.3,0.1,2.1,0.3l-9.1,23.9
			c-0.6,0.1-1.2,0.2-1.9,0.2c-0.7,0-1.2,0-1.6,0c-0.5,0-1,0-1.6,0c-0.6,0-1.1-0.1-1.7-0.2L96.5,58z"/>
		<path class="st15" d="M126,63h-3.1c-0.1-0.4-0.2-0.8-0.2-1.3c0-0.4-0.1-0.9-0.1-1.3c0-0.8,0.1-1.7,0.3-2.5h9.6v24
			c-1.1,0.2-2.2,0.3-3.2,0.3c-1,0-2.1-0.1-3.2-0.3V63z M125,53.9c-0.2-1.1-0.3-2.1-0.3-3.1c0-1,0.1-2,0.3-3.1
			c0.5-0.1,1.1-0.2,1.7-0.2c0.6,0,1.1-0.1,1.6-0.1c0.5,0,1.1,0,1.7,0.1c0.6,0.1,1.2,0.1,1.7,0.2c0.1,0.5,0.2,1,0.2,1.6
			c0,0.5,0,1,0,1.6c0,0.5,0,1,0,1.5c0,0.5-0.1,1-0.2,1.6c-0.5,0.1-1.1,0.2-1.7,0.2c-0.6,0-1.2,0-1.7,0c-0.5,0-1.1,0-1.7,0
			C126.1,54.1,125.6,54,125,53.9z"/>
		<path class="st15" d="M144.2,72c0.1,1.9,0.8,3.2,1.9,4c1.2,0.8,2.7,1.3,4.6,1.3c1.1,0,2.1-0.1,3.2-0.3c1.1-0.2,2.1-0.5,3.1-0.9
			c0.3,0.6,0.6,1.4,0.9,2.2c0.2,0.9,0.4,1.8,0.4,2.8c-2.4,0.9-5.1,1.4-8.2,1.4c-2.2,0-4.1-0.3-5.7-0.9c-1.6-0.6-2.9-1.5-3.9-2.6
			c-1-1.1-1.7-2.4-2.2-3.9c-0.5-1.5-0.7-3.2-0.7-5c0-1.8,0.2-3.4,0.7-5c0.5-1.5,1.2-2.9,2.2-4c1-1.1,2.2-2,3.6-2.7
			c1.4-0.7,3.1-1,5-1c1.7,0,3.2,0.3,4.5,0.9c1.3,0.6,2.4,1.4,3.3,2.4c0.9,1,1.6,2.2,2.1,3.6c0.5,1.4,0.7,2.9,0.7,4.5
			c0,0.6,0,1.2-0.1,1.7c-0.1,0.6-0.1,1-0.2,1.4H144.2z M153.6,67.4c-0.1-1.5-0.5-2.7-1.2-3.6c-0.8-0.9-1.8-1.4-3.2-1.4
			c-1.5,0-2.7,0.4-3.5,1.3c-0.8,0.9-1.3,2.1-1.4,3.7H153.6z"/>
		<path class="st15" d="M161.4,58c0.7-0.2,1.4-0.2,2-0.3c0.6,0,1.2,0,1.6,0c0.6,0,1.2,0,1.8,0c0.6,0,1.1,0.1,1.7,0.2l3.8,17.7
			l4.4-17.7c1-0.2,2-0.3,3.2-0.3c0.8,0,1.5,0.1,2,0.1s1,0.1,1.4,0.2l4.4,17.4l3.8-17.4c0.5-0.1,1-0.2,1.5-0.2c0.5,0,1-0.1,1.6-0.1
			c0.4,0,1,0,1.6,0c0.6,0,1.3,0.1,2,0.3l-7.5,23.9c-0.6,0.1-1.1,0.2-1.8,0.2c-0.6,0-1.2,0-1.6,0c-0.5,0-1,0-1.6,0
			c-0.6,0-1.1-0.1-1.6-0.2L179.7,66l-4.5,15.9c-0.6,0.1-1.2,0.2-1.8,0.2c-0.6,0-1.2,0-1.6,0c-0.4,0-0.9,0-1.5,0
			c-0.6,0-1.1-0.1-1.6-0.2L161.4,58z"/>
		<linearGradient id="SVGID_1_" gradientUnits="userSpaceOnUse" x1="205.1404" y1="56.174" x2="205.1404" y2="92.9154">
			<stop  offset="0.1774" style="stop-color:#04C9FE"/>
			<stop  offset="0.8441" style="stop-color:#182AB4"/>
		</linearGradient>
		<path class="st0" d="M201.7,81.9c-0.2-1.1-0.3-2.3-0.3-3.4s0.1-2.3,0.3-3.4c1.1-0.2,2.3-0.3,3.4-0.3c1.1,0,2.3,0.1,3.4,0.3
			c0.2,1.2,0.3,2.3,0.3,3.4c0,1.1-0.1,2.3-0.3,3.4c-1.2,0.2-2.3,0.3-3.4,0.3C204,82.2,202.9,82.1,201.7,81.9z"/>
		<linearGradient id="SVGID_2_" gradientUnits="userSpaceOnUse" x1="226.1479" y1="56.174" x2="226.1479" y2="92.9154">
			<stop  offset="0.1774" style="stop-color:#04C9FE"/>
			<stop  offset="0.8441" style="stop-color:#182AB4"/>
		</linearGradient>
		<path class="st1" d="M214.9,57.9c0.4-0.1,0.9-0.2,1.3-0.2c0.4,0,0.9,0,1.4,0c0.9,0,1.7,0.1,2.6,0.3c0.1,0.2,0.2,0.4,0.3,0.7
			c0.1,0.3,0.2,0.6,0.2,0.9c0.1,0.3,0.1,0.7,0.2,1c0,0.3,0.1,0.6,0.1,0.8c0.3-0.5,0.6-1,1-1.5c0.4-0.5,0.9-0.9,1.5-1.3
			c0.6-0.4,1.2-0.7,1.9-0.9c0.7-0.2,1.5-0.4,2.4-0.4c1.3,0,2.6,0.2,3.7,0.7c1.2,0.5,2.2,1.2,3,2.2c0.9,1,1.5,2.3,2,3.8
			c0.5,1.5,0.7,3.3,0.7,5.4c0,2-0.3,3.8-0.9,5.4s-1.4,2.9-2.6,4.1c-1.1,1.1-2.5,2-4.1,2.6c-1.6,0.6-3.4,0.9-5.5,0.9
			c-0.5,0-1,0-1.6-0.1c-0.5,0-0.9-0.1-1.3-0.2v10.7c-0.6,0.1-1.1,0.2-1.7,0.2c-0.5,0-1.1,0-1.6,0c-0.5,0-1.1,0-1.6,0
			c-0.5,0-1.1-0.1-1.7-0.2V57.9z M221.5,76.8c0.8,0.2,1.8,0.4,2.9,0.4c1.9,0,3.4-0.6,4.4-1.9c1-1.2,1.5-3.1,1.5-5.6
			c0-1-0.1-1.9-0.2-2.7c-0.2-0.8-0.4-1.5-0.8-2.1c-0.4-0.6-0.8-1.1-1.4-1.4c-0.6-0.3-1.3-0.5-2.1-0.5c-0.8,0-1.4,0.1-2,0.4
			c-0.5,0.3-1,0.7-1.3,1.2c-0.3,0.5-0.6,1.1-0.7,1.8c-0.2,0.7-0.2,1.4-0.2,2.2V76.8z"/>
		<linearGradient id="SVGID_3_" gradientUnits="userSpaceOnUse" x1="251.4012" y1="56.174" x2="251.4012" y2="92.9154">
			<stop  offset="0.1774" style="stop-color:#04C9FE"/>
			<stop  offset="0.8441" style="stop-color:#182AB4"/>
		</linearGradient>
		<path class="st2" d="M239.3,58c0.7-0.2,1.3-0.2,1.9-0.3c0.5,0,1,0,1.5,0c0.6,0,1.3,0,1.9,0c0.6,0,1.2,0.1,1.8,0.2l5,20.9L257,58
			c1-0.2,2.1-0.3,3.2-0.3c0.5,0,1,0,1.5,0c0.5,0,1.2,0.1,2,0.3l-9,29.6c-0.4,1.2-0.8,2.2-1.3,2.9c-0.5,0.8-1.1,1.4-1.7,1.8
			c-0.7,0.4-1.4,0.7-2.2,0.9s-1.7,0.3-2.6,0.3c-0.9,0-1.6-0.1-2.3-0.2c-0.7-0.1-1.4-0.3-2.1-0.4c0-0.2,0-0.3,0-0.4
			c0-0.1,0-0.2,0-0.4c0-0.7,0.1-1.4,0.3-2.1c0.2-0.7,0.4-1.3,0.6-1.9c0.3,0.1,0.7,0.2,1.1,0.3c0.5,0.1,0.9,0.1,1.4,0.1
			c0.4,0,0.7,0,1.1-0.1c0.4,0,0.7-0.2,1.1-0.4c0.4-0.2,0.7-0.6,1-1.1c0.3-0.5,0.6-1.2,0.8-2.1l0.8-2.9c-0.3,0-0.7,0.1-1.1,0.1
			c-0.4,0-0.8,0-1.3,0c-0.3,0-0.7,0-1,0c-0.3,0-0.6,0-0.8-0.1L239.3,58z"/>
	</g>
	<g>
		<g>
			<linearGradient id="SVGID_4_" gradientUnits="userSpaceOnUse" x1="53.145" y1="42.062" x2="53.145" y2="100.5597">
				<stop  offset="0" style="stop-color:#04C9FE"/>
				<stop  offset="0.1774" style="stop-color:#04C9FE"/>
				<stop  offset="0.8441" style="stop-color:#182AB4"/>
				<stop  offset="1" style="stop-color:#182AB4"/>
			</linearGradient>
			<path class="st3" d="M69.9,60.8c0-0.8-0.2-1.6-0.7-2.3c-0.8-1.3-2.2-2.1-3.8-2.1H40.9c-1.5,0-3,0.8-3.8,2.1
				c-0.4,0.7-0.7,1.5-0.7,2.3c0,0.7,0.2,1.4,0.5,2l12.3,24.3c0.8,1.5,2.3,2.4,3.9,2.4c1.7,0,3.2-0.9,3.9-2.4l12.3-24.3
				C69.7,62.2,69.9,61.5,69.9,60.8z M62.7,72.3L62,73.7c-0.4,0.7-1,1.4-1.6,2c-1.9,1.9-4.5,3-7.3,3c-2.9,0-5.4-1.2-7.3-3
				c-0.6-0.6-1.1-1.3-1.6-2l-0.7-1.3c-0.5-1.2-0.8-2.5-0.8-3.9c0-2.9,1.2-5.4,3-7.3c1.8-1.8,4.2-2.9,6.9-3h0.9
				c2.7,0.1,5.1,1.2,6.9,3c1.9,1.9,3,4.5,3,7.3C63.5,69.8,63.2,71.1,62.7,72.3z M38.1,60.8c0-0.5,0.1-1,0.4-1.4
				c0.5-0.9,1.3-1.3,2.4-1.3h6.3c-3.4,2-5.7,5.5-5.9,9.6l-2.8-5.6C38.2,61.7,38.1,61.3,38.1,60.8z M55.6,86.4
				c-0.5,1-1.4,1.5-2.5,1.5c-1.1,0-2-0.6-2.5-1.5l-4-7.9c1.9,1.2,4.1,1.9,6.5,1.9c2.4,0,4.6-0.7,6.5-1.9L55.6,86.4z M67.9,62.1
				l-2.8,5.6c-0.2-4.1-2.6-7.7-5.9-9.6h6.3c1,0,1.8,0.5,2.4,1.3c0.3,0.5,0.4,0.9,0.4,1.4C68.2,61.3,68.1,61.7,67.9,62.1z"/>
			<linearGradient id="SVGID_5_" gradientUnits="userSpaceOnUse" x1="53.1455" y1="42.062" x2="53.1455" y2="100.5597">
				<stop  offset="0" style="stop-color:#04C9FE"/>
				<stop  offset="0.1774" style="stop-color:#04C9FE"/>
				<stop  offset="0.8441" style="stop-color:#182AB4"/>
				<stop  offset="1" style="stop-color:#182AB4"/>
			</linearGradient>
			<path class="st4" d="M55.9,63c0-0.8,0.3-1.5,0.9-2c-1.1-0.5-2.3-0.8-3.6-0.8c-4.5,0-8.2,3.7-8.2,8.2c0,4.5,3.7,8.2,8.2,8.2
				c4.5,0,8.2-3.7,8.2-8.2c0-1.3-0.3-2.5-0.8-3.6c-0.5,0.6-1.2,0.9-2,0.9C57.1,65.7,55.9,64.5,55.9,63z"/>
		</g>
		<linearGradient id="SVGID_6_" gradientUnits="userSpaceOnUse" x1="56.4091" y1="42.6533" x2="56.4091" y2="98.8012">
			<stop  offset="0" style="stop-color:#04C9FE"/>
			<stop  offset="0.1774" style="stop-color:#04C9FE"/>
			<stop  offset="0.8441" style="stop-color:#182AB4"/>
			<stop  offset="1" style="stop-color:#182AB4"/>
		</linearGradient>
		<path class="st5" d="M82.4,76.5L82.4,76.5c6.3,1.9,10.4,4.8,10.4,8.2c0,5.6-11.3,10.1-25.3,10.1c-6.2,0-11.8-0.9-16.2-2.3l0,0
			c-1.5-0.5-2.9-1.5-3.7-3.2L34.2,63c-1.1-2.1-0.8-4.4,0.3-6.2c-10.7,0.9-17.5,4.5-17.5,7c0,2.3,5.6,5.5,14.7,6.7l0.1,0
			c0.4,0,0.7,0.1,1.1,0.1c0.1,0,0.2,0,0.3,0c0.3,0,0.7,0.1,1,0.1c0.1,0,0.2,0,0.3,0c0.4,0,0.9,0.1,1.3,0.1c-3.7,0.4-7,0.4-9.8,0.2
			v4.7h0v6c0,2.4,1.3,4.6,3.3,5.8l20.6,11.9c1,0.6,2.2,0.9,3.3,0.9c1.2,0,2.3-0.3,3.3-0.9l1.9-1.1c-4.3-1-8.1-2.5-11.2-4.1
			c0.5,0.2,1,0.4,1.6,0.6l0.1,0.1c1.1,0.4,2.2,0.7,3.4,1l0.1,0c0.6,0.2,1.2,0.3,1.8,0.4l0.2,0c1.3,0.3,2.6,0.5,4,0.7l0.2,0
			c0.7,0.1,1.4,0.2,2.1,0.2l0.1,0c0.7,0.1,1.4,0.1,2.1,0.2l0,0l0,0c1.5,0.1,3,0.1,4.5,0.1c15.7,0,28.5-5.1,28.5-11.4
			C95.9,82.2,90.4,78.6,82.4,76.5z"/>
		<linearGradient id="SVGID_7_" gradientUnits="userSpaceOnUse" x1="50.4796" y1="38.7668" x2="50.4796" y2="101.1285">
			<stop  offset="0" style="stop-color:#04C9FE"/>
			<stop  offset="0.1774" style="stop-color:#04C9FE"/>
			<stop  offset="0.8441" style="stop-color:#182AB4"/>
			<stop  offset="1" style="stop-color:#182AB4"/>
		</linearGradient>
		<path class="st6" d="M73.7,77.8L73.7,77.8c-0.9-0.1-1.7-0.2-2.6-0.2c3.4-0.4,6.6-0.4,9.2-0.2v-17h0v-2.3c0-2.4-1.3-4.6-3.3-5.8
			L56.5,40.4c-1-0.6-2.2-0.9-3.3-0.9c-1.2,0-2.3,0.3-3.3,0.9l-13.8,8c1.8,0.1,7.8,0.5,15,3.4c-3.4-0.6-7.1-0.9-11.1-1v0
			c-0.1,0-0.3,0-0.4,0C23.8,50.8,11,55.9,11,62.2c0,4,5.2,7.6,13,9.6v-0.1c-6-1.8-9.8-4.7-9.8-8c0-5.5,11.3-10,25.2-10.1l0,0
			c0.2,0,0.3,0,0.5,0h26.6c4.7,0,7.8,5,5.7,9.2L58.8,89.3c-0.4,0.7-0.9,1.3-1.4,1.8c2.9,0.5,6.3,0.9,10,0.9
			c13.5,0,22.5-4.4,22.5-7.2C89.9,82.3,83.7,78.9,73.7,77.8z"/>
	</g>
</g>
</svg>
